<?xml version="1.0" encoding="utf-8" standalone="no"?>
<!DOCTYPE svg PUBLIC "-//W3C//DTD SVG 1.1//EN"
  "http://www.w3.org/Graphics/SVG/1.1/DTD/svg11.dtd">
<svg xmlns:xlink="http://www.w3.org/1999/xlink" width="864pt" height="432pt" viewBox="0 0 864 432" xmlns="http://www.w3.org/2000/svg" version="1.1">
 <metadata>
  <rdf:RDF xmlns:dc="http://purl.org/dc/elements/1.1/" xmlns:cc="http://creativecommons.org/ns#" xmlns:rdf="http://www.w3.org/1999/02/22-rdf-syntax-ns#">
   <cc:Work>
    <dc:type rdf:resource="http://purl.org/dc/dcmitype/StillImage"/>
    <dc:date>2026-06-19T12:17:32.379472</dc:date>
    <dc:format>image/svg+xml</dc:format>
    <dc:creator>
     <cc:Agent>
      <dc:title>Matplotlib v3.10.8, https://matplotlib.org/</dc:title>
     </cc:Agent>
    </dc:creator>
   </cc:Work>
  </rdf:RDF>
 </metadata>
 <defs>
  <style type="text/css">*{stroke-linejoin: round; stroke-linecap: butt}</style>
 </defs>
 <g id="figure_1">
  <g id="patch_1">
   <path d="M 0 432 
L 864 432 
L 864 0 
L 0 0 
z
" style="fill: #ffffff"/>
  </g>
  <g id="axes_1">
   <g id="patch_2">
    <path d="M 47.81 390.04 
L 853.2 390.04 
L 853.2 25.44 
L 47.81 25.44 
z
" style="fill: #ffffff"/>
   </g>
   <g id="matplotlib.axis_1">
    <g id="xtick_1">
     <g id="line2d_1">
      <path d="M 119.284004 390.04 
L 119.284004 25.44 
" clip-path="url(#p3525f32398)" style="fill: none; stroke: #b0b0b0; stroke-opacity: 0.25; stroke-width: 0.8; stroke-linecap: square"/>
     </g>
     <g id="line2d_2">
      <defs>
       <path id="m203bb6c658" d="M 0 0 
L 0 3.5 
" style="stroke: #000000; stroke-width: 0.8"/>
      </defs>
      <g>
       <use xlink:href="#m203bb6c658" x="119.284004" y="390.04" style="stroke: #000000; stroke-width: 0.8"/>
      </g>
     </g>
     <g id="text_1">
      <!-- 500 -->
      <g transform="translate(109.740254 404.638438) scale(0.1 -0.1)">
       <defs>
        <path id="DejaVuSans-35" d="M 691 4666 
L 3169 4666 
L 3169 4134 
L 1269 4134 
L 1269 2991 
Q 1406 3038 1543 3061 
Q 1681 3084 1819 3084 
Q 2600 3084 3056 2656 
Q 3513 2228 3513 1497 
Q 3513 744 3044 326 
Q 2575 -91 1722 -91 
Q 1428 -91 1123 -41 
Q 819 9 494 109 
L 494 744 
Q 775 591 1075 516 
Q 1375 441 1709 441 
Q 2250 441 2565 725 
Q 2881 1009 2881 1497 
Q 2881 1984 2565 2268 
Q 2250 2553 1709 2553 
Q 1456 2553 1204 2497 
Q 953 2441 691 2322 
L 691 4666 
z
" transform="scale(0.015625)"/>
        <path id="DejaVuSans-30" d="M 2034 4250 
Q 1547 4250 1301 3770 
Q 1056 3291 1056 2328 
Q 1056 1369 1301 889 
Q 1547 409 2034 409 
Q 2525 409 2770 889 
Q 3016 1369 3016 2328 
Q 3016 3291 2770 3770 
Q 2525 4250 2034 4250 
z
M 2034 4750 
Q 2819 4750 3233 4129 
Q 3647 3509 3647 2328 
Q 3647 1150 3233 529 
Q 2819 -91 2034 -91 
Q 1250 -91 836 529 
Q 422 1150 422 2328 
Q 422 3509 836 4129 
Q 1250 4750 2034 4750 
z
" transform="scale(0.015625)"/>
       </defs>
       <use xlink:href="#DejaVuSans-35"/>
       <use xlink:href="#DejaVuSans-30" transform="translate(63.623047 0)"/>
       <use xlink:href="#DejaVuSans-30" transform="translate(127.246094 0)"/>
      </g>
     </g>
    </g>
    <g id="xtick_2">
     <g id="line2d_3">
      <path d="M 293.610844 390.04 
L 293.610844 25.44 
" clip-path="url(#p3525f32398)" style="fill: none; stroke: #b0b0b0; stroke-opacity: 0.25; stroke-width: 0.8; stroke-linecap: square"/>
     </g>
     <g id="line2d_4">
      <g>
       <use xlink:href="#m203bb6c658" x="293.610844" y="390.04" style="stroke: #000000; stroke-width: 0.8"/>
      </g>
     </g>
     <g id="text_2">
      <!-- 1000 -->
      <g transform="translate(280.885844 404.638438) scale(0.1 -0.1)">
       <defs>
        <path id="DejaVuSans-31" d="M 794 531 
L 1825 531 
L 1825 4091 
L 703 3866 
L 703 4441 
L 1819 4666 
L 2450 4666 
L 2450 531 
L 3481 531 
L 3481 0 
L 794 0 
L 794 531 
z
" transform="scale(0.015625)"/>
       </defs>
       <use xlink:href="#DejaVuSans-31"/>
       <use xlink:href="#DejaVuSans-30" transform="translate(63.623047 0)"/>
       <use xlink:href="#DejaVuSans-30" transform="translate(127.246094 0)"/>
       <use xlink:href="#DejaVuSans-30" transform="translate(190.869141 0)"/>
      </g>
     </g>
    </g>
    <g id="xtick_3">
     <g id="line2d_5">
      <path d="M 467.937684 390.04 
L 467.937684 25.44 
" clip-path="url(#p3525f32398)" style="fill: none; stroke: #b0b0b0; stroke-opacity: 0.25; stroke-width: 0.8; stroke-linecap: square"/>
     </g>
     <g id="line2d_6">
      <g>
       <use xlink:href="#m203bb6c658" x="467.937684" y="390.04" style="stroke: #000000; stroke-width: 0.8"/>
      </g>
     </g>
     <g id="text_3">
      <!-- 1500 -->
      <g transform="translate(455.212684 404.638438) scale(0.1 -0.1)">
       <use xlink:href="#DejaVuSans-31"/>
       <use xlink:href="#DejaVuSans-35" transform="translate(63.623047 0)"/>
       <use xlink:href="#DejaVuSans-30" transform="translate(127.246094 0)"/>
       <use xlink:href="#DejaVuSans-30" transform="translate(190.869141 0)"/>
      </g>
     </g>
    </g>
    <g id="xtick_4">
     <g id="line2d_7">
      <path d="M 642.264524 390.04 
L 642.264524 25.44 
" clip-path="url(#p3525f32398)" style="fill: none; stroke: #b0b0b0; stroke-opacity: 0.25; stroke-width: 0.8; stroke-linecap: square"/>
     </g>
     <g id="line2d_8">
      <g>
       <use xlink:href="#m203bb6c658" x="642.264524" y="390.04" style="stroke: #000000; stroke-width: 0.8"/>
      </g>
     </g>
     <g id="text_4">
      <!-- 2000 -->
      <g transform="translate(629.539524 404.638438) scale(0.1 -0.1)">
       <defs>
        <path id="DejaVuSans-32" d="M 1228 531 
L 3431 531 
L 3431 0 
L 469 0 
L 469 531 
Q 828 903 1448 1529 
Q 2069 2156 2228 2338 
Q 2531 2678 2651 2914 
Q 2772 3150 2772 3378 
Q 2772 3750 2511 3984 
Q 2250 4219 1831 4219 
Q 1534 4219 1204 4116 
Q 875 4013 500 3803 
L 500 4441 
Q 881 4594 1212 4672 
Q 1544 4750 1819 4750 
Q 2544 4750 2975 4387 
Q 3406 4025 3406 3419 
Q 3406 3131 3298 2873 
Q 3191 2616 2906 2266 
Q 2828 2175 2409 1742 
Q 1991 1309 1228 531 
z
" transform="scale(0.015625)"/>
       </defs>
       <use xlink:href="#DejaVuSans-32"/>
       <use xlink:href="#DejaVuSans-30" transform="translate(63.623047 0)"/>
       <use xlink:href="#DejaVuSans-30" transform="translate(127.246094 0)"/>
       <use xlink:href="#DejaVuSans-30" transform="translate(190.869141 0)"/>
      </g>
     </g>
    </g>
    <g id="xtick_5">
     <g id="line2d_9">
      <path d="M 816.591364 390.04 
L 816.591364 25.44 
" clip-path="url(#p3525f32398)" style="fill: none; stroke: #b0b0b0; stroke-opacity: 0.25; stroke-width: 0.8; stroke-linecap: square"/>
     </g>
     <g id="line2d_10">
      <g>
       <use xlink:href="#m203bb6c658" x="816.591364" y="390.04" style="stroke: #000000; stroke-width: 0.8"/>
      </g>
     </g>
     <g id="text_5">
      <!-- 2500 -->
      <g transform="translate(803.866364 404.638438) scale(0.1 -0.1)">
       <use xlink:href="#DejaVuSans-32"/>
       <use xlink:href="#DejaVuSans-35" transform="translate(63.623047 0)"/>
       <use xlink:href="#DejaVuSans-30" transform="translate(127.246094 0)"/>
       <use xlink:href="#DejaVuSans-30" transform="translate(190.869141 0)"/>
      </g>
     </g>
    </g>
    <g id="text_6">
     <!-- Wavelength (nm) -->
     <g transform="translate(407.312813 418.316562) scale(0.1 -0.1)">
      <defs>
       <path id="DejaVuSans-57" d="M 213 4666 
L 850 4666 
L 1831 722 
L 2809 4666 
L 3519 4666 
L 4500 722 
L 5478 4666 
L 6119 4666 
L 4947 0 
L 4153 0 
L 3169 4050 
L 2175 0 
L 1381 0 
L 213 4666 
z
" transform="scale(0.015625)"/>
       <path id="DejaVuSans-61" d="M 2194 1759 
Q 1497 1759 1228 1600 
Q 959 1441 959 1056 
Q 959 750 1161 570 
Q 1363 391 1709 391 
Q 2188 391 2477 730 
Q 2766 1069 2766 1631 
L 2766 1759 
L 2194 1759 
z
M 3341 1997 
L 3341 0 
L 2766 0 
L 2766 531 
Q 2569 213 2275 61 
Q 1981 -91 1556 -91 
Q 1019 -91 701 211 
Q 384 513 384 1019 
Q 384 1609 779 1909 
Q 1175 2209 1959 2209 
L 2766 2209 
L 2766 2266 
Q 2766 2663 2505 2880 
Q 2244 3097 1772 3097 
Q 1472 3097 1187 3025 
Q 903 2953 641 2809 
L 641 3341 
Q 956 3463 1253 3523 
Q 1550 3584 1831 3584 
Q 2591 3584 2966 3190 
Q 3341 2797 3341 1997 
z
" transform="scale(0.015625)"/>
       <path id="DejaVuSans-76" d="M 191 3500 
L 800 3500 
L 1894 563 
L 2988 3500 
L 3597 3500 
L 2284 0 
L 1503 0 
L 191 3500 
z
" transform="scale(0.015625)"/>
       <path id="DejaVuSans-65" d="M 3597 1894 
L 3597 1613 
L 953 1613 
Q 991 1019 1311 708 
Q 1631 397 2203 397 
Q 2534 397 2845 478 
Q 3156 559 3463 722 
L 3463 178 
Q 3153 47 2828 -22 
Q 2503 -91 2169 -91 
Q 1331 -91 842 396 
Q 353 884 353 1716 
Q 353 2575 817 3079 
Q 1281 3584 2069 3584 
Q 2775 3584 3186 3129 
Q 3597 2675 3597 1894 
z
M 3022 2063 
Q 3016 2534 2758 2815 
Q 2500 3097 2075 3097 
Q 1594 3097 1305 2825 
Q 1016 2553 972 2059 
L 3022 2063 
z
" transform="scale(0.015625)"/>
       <path id="DejaVuSans-6c" d="M 603 4863 
L 1178 4863 
L 1178 0 
L 603 0 
L 603 4863 
z
" transform="scale(0.015625)"/>
       <path id="DejaVuSans-6e" d="M 3513 2113 
L 3513 0 
L 2938 0 
L 2938 2094 
Q 2938 2591 2744 2837 
Q 2550 3084 2163 3084 
Q 1697 3084 1428 2787 
Q 1159 2491 1159 1978 
L 1159 0 
L 581 0 
L 581 3500 
L 1159 3500 
L 1159 2956 
Q 1366 3272 1645 3428 
Q 1925 3584 2291 3584 
Q 2894 3584 3203 3211 
Q 3513 2838 3513 2113 
z
" transform="scale(0.015625)"/>
       <path id="DejaVuSans-67" d="M 2906 1791 
Q 2906 2416 2648 2759 
Q 2391 3103 1925 3103 
Q 1463 3103 1205 2759 
Q 947 2416 947 1791 
Q 947 1169 1205 825 
Q 1463 481 1925 481 
Q 2391 481 2648 825 
Q 2906 1169 2906 1791 
z
M 3481 434 
Q 3481 -459 3084 -895 
Q 2688 -1331 1869 -1331 
Q 1566 -1331 1297 -1286 
Q 1028 -1241 775 -1147 
L 775 -588 
Q 1028 -725 1275 -790 
Q 1522 -856 1778 -856 
Q 2344 -856 2625 -561 
Q 2906 -266 2906 331 
L 2906 616 
Q 2728 306 2450 153 
Q 2172 0 1784 0 
Q 1141 0 747 490 
Q 353 981 353 1791 
Q 353 2603 747 3093 
Q 1141 3584 1784 3584 
Q 2172 3584 2450 3431 
Q 2728 3278 2906 2969 
L 2906 3500 
L 3481 3500 
L 3481 434 
z
" transform="scale(0.015625)"/>
       <path id="DejaVuSans-74" d="M 1172 4494 
L 1172 3500 
L 2356 3500 
L 2356 3053 
L 1172 3053 
L 1172 1153 
Q 1172 725 1289 603 
Q 1406 481 1766 481 
L 2356 481 
L 2356 0 
L 1766 0 
Q 1100 0 847 248 
Q 594 497 594 1153 
L 594 3053 
L 172 3053 
L 172 3500 
L 594 3500 
L 594 4494 
L 1172 4494 
z
" transform="scale(0.015625)"/>
       <path id="DejaVuSans-68" d="M 3513 2113 
L 3513 0 
L 2938 0 
L 2938 2094 
Q 2938 2591 2744 2837 
Q 2550 3084 2163 3084 
Q 1697 3084 1428 2787 
Q 1159 2491 1159 1978 
L 1159 0 
L 581 0 
L 581 4863 
L 1159 4863 
L 1159 2956 
Q 1366 3272 1645 3428 
Q 1925 3584 2291 3584 
Q 2894 3584 3203 3211 
Q 3513 2838 3513 2113 
z
" transform="scale(0.015625)"/>
       <path id="DejaVuSans-20" transform="scale(0.015625)"/>
       <path id="DejaVuSans-28" d="M 1984 4856 
Q 1566 4138 1362 3434 
Q 1159 2731 1159 2009 
Q 1159 1288 1364 580 
Q 1569 -128 1984 -844 
L 1484 -844 
Q 1016 -109 783 600 
Q 550 1309 550 2009 
Q 550 2706 781 3412 
Q 1013 4119 1484 4856 
L 1984 4856 
z
" transform="scale(0.015625)"/>
       <path id="DejaVuSans-6d" d="M 3328 2828 
Q 3544 3216 3844 3400 
Q 4144 3584 4550 3584 
Q 5097 3584 5394 3201 
Q 5691 2819 5691 2113 
L 5691 0 
L 5113 0 
L 5113 2094 
Q 5113 2597 4934 2840 
Q 4756 3084 4391 3084 
Q 3944 3084 3684 2787 
Q 3425 2491 3425 1978 
L 3425 0 
L 2847 0 
L 2847 2094 
Q 2847 2600 2669 2842 
Q 2491 3084 2119 3084 
Q 1678 3084 1418 2786 
Q 1159 2488 1159 1978 
L 1159 0 
L 581 0 
L 581 3500 
L 1159 3500 
L 1159 2956 
Q 1356 3278 1631 3431 
Q 1906 3584 2284 3584 
Q 2666 3584 2933 3390 
Q 3200 3197 3328 2828 
z
" transform="scale(0.015625)"/>
       <path id="DejaVuSans-29" d="M 513 4856 
L 1013 4856 
Q 1481 4119 1714 3412 
Q 1947 2706 1947 2009 
Q 1947 1309 1714 600 
Q 1481 -109 1013 -844 
L 513 -844 
Q 928 -128 1133 580 
Q 1338 1288 1338 2009 
Q 1338 2731 1133 3434 
Q 928 4138 513 4856 
z
" transform="scale(0.015625)"/>
      </defs>
      <use xlink:href="#DejaVuSans-57"/>
      <use xlink:href="#DejaVuSans-61" transform="translate(92.501953 0)"/>
      <use xlink:href="#DejaVuSans-76" transform="translate(153.78125 0)"/>
      <use xlink:href="#DejaVuSans-65" transform="translate(212.960938 0)"/>
      <use xlink:href="#DejaVuSans-6c" transform="translate(274.484375 0)"/>
      <use xlink:href="#DejaVuSans-65" transform="translate(302.267578 0)"/>
      <use xlink:href="#DejaVuSans-6e" transform="translate(363.791016 0)"/>
      <use xlink:href="#DejaVuSans-67" transform="translate(427.169922 0)"/>
      <use xlink:href="#DejaVuSans-74" transform="translate(490.646484 0)"/>
      <use xlink:href="#DejaVuSans-68" transform="translate(529.855469 0)"/>
      <use xlink:href="#DejaVuSans-20" transform="translate(593.234375 0)"/>
      <use xlink:href="#DejaVuSans-28" transform="translate(625.021484 0)"/>
      <use xlink:href="#DejaVuSans-6e" transform="translate(664.035156 0)"/>
      <use xlink:href="#DejaVuSans-6d" transform="translate(727.414062 0)"/>
      <use xlink:href="#DejaVuSans-29" transform="translate(824.826172 0)"/>
     </g>
    </g>
   </g>
   <g id="matplotlib.axis_2">
    <g id="ytick_1">
     <g id="line2d_11">
      <path d="M 47.81 387.777222 
L 853.2 387.777222 
" clip-path="url(#p3525f32398)" style="fill: none; stroke: #b0b0b0; stroke-opacity: 0.25; stroke-width: 0.8; stroke-linecap: square"/>
     </g>
     <g id="line2d_12">
      <defs>
       <path id="mf7c7196703" d="M 0 0 
L -3.5 0 
" style="stroke: #000000; stroke-width: 0.8"/>
      </defs>
      <g>
       <use xlink:href="#mf7c7196703" x="47.81" y="387.777222" style="stroke: #000000; stroke-width: 0.8"/>
      </g>
     </g>
     <g id="text_7">
      <!-- 0.0 -->
      <g transform="translate(24.906875 391.57644) scale(0.1 -0.1)">
       <defs>
        <path id="DejaVuSans-2e" d="M 684 794 
L 1344 794 
L 1344 0 
L 684 0 
L 684 794 
z
" transform="scale(0.015625)"/>
       </defs>
       <use xlink:href="#DejaVuSans-30"/>
       <use xlink:href="#DejaVuSans-2e" transform="translate(63.623047 0)"/>
       <use xlink:href="#DejaVuSans-30" transform="translate(95.410156 0)"/>
      </g>
     </g>
    </g>
    <g id="ytick_2">
     <g id="line2d_13">
      <path d="M 47.81 319.565508 
L 853.2 319.565508 
" clip-path="url(#p3525f32398)" style="fill: none; stroke: #b0b0b0; stroke-opacity: 0.25; stroke-width: 0.8; stroke-linecap: square"/>
     </g>
     <g id="line2d_14">
      <g>
       <use xlink:href="#mf7c7196703" x="47.81" y="319.565508" style="stroke: #000000; stroke-width: 0.8"/>
      </g>
     </g>
     <g id="text_8">
      <!-- 0.2 -->
      <g transform="translate(24.906875 323.364727) scale(0.1 -0.1)">
       <use xlink:href="#DejaVuSans-30"/>
       <use xlink:href="#DejaVuSans-2e" transform="translate(63.623047 0)"/>
       <use xlink:href="#DejaVuSans-32" transform="translate(95.410156 0)"/>
      </g>
     </g>
    </g>
    <g id="ytick_3">
     <g id="line2d_15">
      <path d="M 47.81 251.353794 
L 853.2 251.353794 
" clip-path="url(#p3525f32398)" style="fill: none; stroke: #b0b0b0; stroke-opacity: 0.25; stroke-width: 0.8; stroke-linecap: square"/>
     </g>
     <g id="line2d_16">
      <g>
       <use xlink:href="#mf7c7196703" x="47.81" y="251.353794" style="stroke: #000000; stroke-width: 0.8"/>
      </g>
     </g>
     <g id="text_9">
      <!-- 0.4 -->
      <g transform="translate(24.906875 255.153013) scale(0.1 -0.1)">
       <defs>
        <path id="DejaVuSans-34" d="M 2419 4116 
L 825 1625 
L 2419 1625 
L 2419 4116 
z
M 2253 4666 
L 3047 4666 
L 3047 1625 
L 3713 1625 
L 3713 1100 
L 3047 1100 
L 3047 0 
L 2419 0 
L 2419 1100 
L 313 1100 
L 313 1709 
L 2253 4666 
z
" transform="scale(0.015625)"/>
       </defs>
       <use xlink:href="#DejaVuSans-30"/>
       <use xlink:href="#DejaVuSans-2e" transform="translate(63.623047 0)"/>
       <use xlink:href="#DejaVuSans-34" transform="translate(95.410156 0)"/>
      </g>
     </g>
    </g>
    <g id="ytick_4">
     <g id="line2d_17">
      <path d="M 47.81 183.14208 
L 853.2 183.14208 
" clip-path="url(#p3525f32398)" style="fill: none; stroke: #b0b0b0; stroke-opacity: 0.25; stroke-width: 0.8; stroke-linecap: square"/>
     </g>
     <g id="line2d_18">
      <g>
       <use xlink:href="#mf7c7196703" x="47.81" y="183.14208" style="stroke: #000000; stroke-width: 0.8"/>
      </g>
     </g>
     <g id="text_10">
      <!-- 0.6 -->
      <g transform="translate(24.906875 186.941299) scale(0.1 -0.1)">
       <defs>
        <path id="DejaVuSans-36" d="M 2113 2584 
Q 1688 2584 1439 2293 
Q 1191 2003 1191 1497 
Q 1191 994 1439 701 
Q 1688 409 2113 409 
Q 2538 409 2786 701 
Q 3034 994 3034 1497 
Q 3034 2003 2786 2293 
Q 2538 2584 2113 2584 
z
M 3366 4563 
L 3366 3988 
Q 3128 4100 2886 4159 
Q 2644 4219 2406 4219 
Q 1781 4219 1451 3797 
Q 1122 3375 1075 2522 
Q 1259 2794 1537 2939 
Q 1816 3084 2150 3084 
Q 2853 3084 3261 2657 
Q 3669 2231 3669 1497 
Q 3669 778 3244 343 
Q 2819 -91 2113 -91 
Q 1303 -91 875 529 
Q 447 1150 447 2328 
Q 447 3434 972 4092 
Q 1497 4750 2381 4750 
Q 2619 4750 2861 4703 
Q 3103 4656 3366 4563 
z
" transform="scale(0.015625)"/>
       </defs>
       <use xlink:href="#DejaVuSans-30"/>
       <use xlink:href="#DejaVuSans-2e" transform="translate(63.623047 0)"/>
       <use xlink:href="#DejaVuSans-36" transform="translate(95.410156 0)"/>
      </g>
     </g>
    </g>
    <g id="ytick_5">
     <g id="line2d_19">
      <path d="M 47.81 114.930367 
L 853.2 114.930367 
" clip-path="url(#p3525f32398)" style="fill: none; stroke: #b0b0b0; stroke-opacity: 0.25; stroke-width: 0.8; stroke-linecap: square"/>
     </g>
     <g id="line2d_20">
      <g>
       <use xlink:href="#mf7c7196703" x="47.81" y="114.930367" style="stroke: #000000; stroke-width: 0.8"/>
      </g>
     </g>
     <g id="text_11">
      <!-- 0.8 -->
      <g transform="translate(24.906875 118.729585) scale(0.1 -0.1)">
       <defs>
        <path id="DejaVuSans-38" d="M 2034 2216 
Q 1584 2216 1326 1975 
Q 1069 1734 1069 1313 
Q 1069 891 1326 650 
Q 1584 409 2034 409 
Q 2484 409 2743 651 
Q 3003 894 3003 1313 
Q 3003 1734 2745 1975 
Q 2488 2216 2034 2216 
z
M 1403 2484 
Q 997 2584 770 2862 
Q 544 3141 544 3541 
Q 544 4100 942 4425 
Q 1341 4750 2034 4750 
Q 2731 4750 3128 4425 
Q 3525 4100 3525 3541 
Q 3525 3141 3298 2862 
Q 3072 2584 2669 2484 
Q 3125 2378 3379 2068 
Q 3634 1759 3634 1313 
Q 3634 634 3220 271 
Q 2806 -91 2034 -91 
Q 1263 -91 848 271 
Q 434 634 434 1313 
Q 434 1759 690 2068 
Q 947 2378 1403 2484 
z
M 1172 3481 
Q 1172 3119 1398 2916 
Q 1625 2713 2034 2713 
Q 2441 2713 2670 2916 
Q 2900 3119 2900 3481 
Q 2900 3844 2670 4047 
Q 2441 4250 2034 4250 
Q 1625 4250 1398 4047 
Q 1172 3844 1172 3481 
z
" transform="scale(0.015625)"/>
       </defs>
       <use xlink:href="#DejaVuSans-30"/>
       <use xlink:href="#DejaVuSans-2e" transform="translate(63.623047 0)"/>
       <use xlink:href="#DejaVuSans-38" transform="translate(95.410156 0)"/>
      </g>
     </g>
    </g>
    <g id="ytick_6">
     <g id="line2d_21">
      <path d="M 47.81 46.718653 
L 853.2 46.718653 
" clip-path="url(#p3525f32398)" style="fill: none; stroke: #b0b0b0; stroke-opacity: 0.25; stroke-width: 0.8; stroke-linecap: square"/>
     </g>
     <g id="line2d_22">
      <g>
       <use xlink:href="#mf7c7196703" x="47.81" y="46.718653" style="stroke: #000000; stroke-width: 0.8"/>
      </g>
     </g>
     <g id="text_12">
      <!-- 1.0 -->
      <g transform="translate(24.906875 50.517872) scale(0.1 -0.1)">
       <use xlink:href="#DejaVuSans-31"/>
       <use xlink:href="#DejaVuSans-2e" transform="translate(63.623047 0)"/>
       <use xlink:href="#DejaVuSans-30" transform="translate(95.410156 0)"/>
      </g>
     </g>
    </g>
    <g id="text_13">
     <!-- Mean reflectance -->
     <g transform="translate(18.827187 250.965781) rotate(-90) scale(0.1 -0.1)">
      <defs>
       <path id="DejaVuSans-4d" d="M 628 4666 
L 1569 4666 
L 2759 1491 
L 3956 4666 
L 4897 4666 
L 4897 0 
L 4281 0 
L 4281 4097 
L 3078 897 
L 2444 897 
L 1241 4097 
L 1241 0 
L 628 0 
L 628 4666 
z
" transform="scale(0.015625)"/>
       <path id="DejaVuSans-72" d="M 2631 2963 
Q 2534 3019 2420 3045 
Q 2306 3072 2169 3072 
Q 1681 3072 1420 2755 
Q 1159 2438 1159 1844 
L 1159 0 
L 581 0 
L 581 3500 
L 1159 3500 
L 1159 2956 
Q 1341 3275 1631 3429 
Q 1922 3584 2338 3584 
Q 2397 3584 2469 3576 
Q 2541 3569 2628 3553 
L 2631 2963 
z
" transform="scale(0.015625)"/>
       <path id="DejaVuSans-66" d="M 2375 4863 
L 2375 4384 
L 1825 4384 
Q 1516 4384 1395 4259 
Q 1275 4134 1275 3809 
L 1275 3500 
L 2222 3500 
L 2222 3053 
L 1275 3053 
L 1275 0 
L 697 0 
L 697 3053 
L 147 3053 
L 147 3500 
L 697 3500 
L 697 3744 
Q 697 4328 969 4595 
Q 1241 4863 1831 4863 
L 2375 4863 
z
" transform="scale(0.015625)"/>
       <path id="DejaVuSans-63" d="M 3122 3366 
L 3122 2828 
Q 2878 2963 2633 3030 
Q 2388 3097 2138 3097 
Q 1578 3097 1268 2742 
Q 959 2388 959 1747 
Q 959 1106 1268 751 
Q 1578 397 2138 397 
Q 2388 397 2633 464 
Q 2878 531 3122 666 
L 3122 134 
Q 2881 22 2623 -34 
Q 2366 -91 2075 -91 
Q 1284 -91 818 406 
Q 353 903 353 1747 
Q 353 2603 823 3093 
Q 1294 3584 2113 3584 
Q 2378 3584 2631 3529 
Q 2884 3475 3122 3366 
z
" transform="scale(0.015625)"/>
      </defs>
      <use xlink:href="#DejaVuSans-4d"/>
      <use xlink:href="#DejaVuSans-65" transform="translate(86.279297 0)"/>
      <use xlink:href="#DejaVuSans-61" transform="translate(147.802734 0)"/>
      <use xlink:href="#DejaVuSans-6e" transform="translate(209.082031 0)"/>
      <use xlink:href="#DejaVuSans-20" transform="translate(272.460938 0)"/>
      <use xlink:href="#DejaVuSans-72" transform="translate(304.248047 0)"/>
      <use xlink:href="#DejaVuSans-65" transform="translate(343.111328 0)"/>
      <use xlink:href="#DejaVuSans-66" transform="translate(404.634766 0)"/>
      <use xlink:href="#DejaVuSans-6c" transform="translate(439.839844 0)"/>
      <use xlink:href="#DejaVuSans-65" transform="translate(467.623047 0)"/>
      <use xlink:href="#DejaVuSans-63" transform="translate(529.146484 0)"/>
      <use xlink:href="#DejaVuSans-74" transform="translate(584.126953 0)"/>
      <use xlink:href="#DejaVuSans-61" transform="translate(623.335938 0)"/>
      <use xlink:href="#DejaVuSans-6e" transform="translate(684.615234 0)"/>
      <use xlink:href="#DejaVuSans-63" transform="translate(747.994141 0)"/>
      <use xlink:href="#DejaVuSans-65" transform="translate(802.974609 0)"/>
     </g>
    </g>
   </g>
   <g id="line2d_23">
    <path d="M 84.418636 364.802937 
L 85.813251 365.971247 
L 86.510558 366.268764 
L 86.859212 366.700529 
L 87.556519 367.164946 
L 89.299788 367.963172 
L 89.997095 368.326 
L 90.694403 368.609003 
L 91.39171 368.848466 
L 92.089017 369.015372 
L 94.180939 369.479788 
L 94.878247 369.632175 
L 96.272861 369.730141 
L 97.318823 369.871647 
L 98.01613 369.857133 
L 99.759398 369.904303 
L 107.778433 369.566871 
L 109.870355 369.610412 
L 112.659584 369.632181 
L 114.402853 369.352806 
L 116.146121 368.699711 
L 117.540736 367.734588 
L 118.586697 366.725923 
L 119.632658 365.263733 
L 120.678619 363.308086 
L 121.72458 360.695722 
L 122.770541 357.299657 
L 123.816502 353.040042 
L 124.862463 347.913282 
L 126.605732 337.844797 
L 128.697654 325.544922 
L 129.743615 320.385499 
L 130.789576 316.133152 
L 131.835537 312.838662 
L 132.881498 310.385941 
L 133.927459 308.539162 
L 135.322074 306.576261 
L 136.368035 305.4406 
L 137.065342 305.012458 
L 137.413996 304.89635 
L 137.762649 304.907231 
L 138.459957 305.317235 
L 139.157264 306.206178 
L 139.854571 307.530484 
L 140.900532 310.041248 
L 142.295147 314.06503 
L 143.689762 318.90515 
L 145.781684 325.885966 
L 147.176299 329.543293 
L 148.570913 332.395106 
L 149.616874 334.158446 
L 150.662835 335.51908 
L 151.360143 336.226584 
L 152.05745 336.763561 
L 154.498026 338.374527 
L 155.543987 339.542831 
L 156.589948 341.208212 
L 160.425139 348.443012 
L 161.4711 349.731057 
L 162.168407 350.347847 
L 163.214368 350.906614 
L 163.911675 351.080769 
L 165.30629 351.363772 
L 166.003597 351.737492 
L 166.700905 352.386948 
L 167.746866 353.899942 
L 168.792827 355.866472 
L 170.884749 360.035375 
L 171.93071 361.475802 
L 173.673978 363.409679 
L 175.417247 366.014781 
L 176.463208 367.422558 
L 177.509169 368.369532 
L 178.206476 368.706964 
L 178.903784 368.848473 
L 179.601091 368.786786 
L 180.298398 368.587231 
L 181.344359 368.017592 
L 182.39032 367.019812 
L 183.087628 365.993021 
L 183.784935 364.476393 
L 184.482242 362.092609 
L 185.17955 358.359103 
L 185.876857 352.764291 
L 186.574165 345.046937 
L 187.620126 329.470704 
L 189.01474 303.372492 
L 192.849931 228.36138 
L 195.63916 178.298298 
L 197.382429 150.073884 
L 198.777043 130.368771 
L 200.171658 113.867376 
L 201.217619 103.599241 
L 202.26358 95.051033 
L 203.309541 88.106513 
L 204.355502 82.5552 
L 205.401463 78.321103 
L 206.447424 75.113583 
L 207.493385 72.751473 
L 208.539346 71.042725 
L 209.585307 69.729229 
L 210.631268 68.785816 
L 212.025883 67.969396 
L 214.117805 67.229371 
L 215.163766 66.979003 
L 221.090879 65.643734 
L 222.13684 65.444127 
L 224.926069 64.910804 
L 229.458567 64.119999 
L 235.037026 63.582895 
L 237.826255 63.281766 
L 242.707407 62.574267 
L 250.029134 61.688913 
L 255.258939 61.416773 
L 261.883359 61.373208 
L 265.021242 61.605423 
L 267.113165 62.073531 
L 268.159126 62.421924 
L 269.902394 63.274529 
L 272.691623 65.201098 
L 273.737584 66.126296 
L 275.132199 67.704594 
L 276.17816 69.232132 
L 279.316043 74.133904 
L 280.362004 75.182599 
L 281.059312 75.632452 
L 282.105273 76.053317 
L 283.848541 76.376218 
L 284.894502 76.379856 
L 286.289117 76.172992 
L 288.032385 75.603464 
L 289.775654 74.718028 
L 292.216229 73.212385 
L 293.610844 72.236385 
L 293.959498 74.050414 
L 295.702766 72.784283 
L 299.537957 69.903385 
L 305.813723 65.719987 
L 308.951606 64.007439 
L 312.089489 62.853624 
L 313.484104 62.552536 
L 315.576026 62.349351 
L 317.319294 62.352949 
L 319.062563 62.559813 
L 322.5491 63.288962 
L 327.430251 64.961565 
L 334.751978 67.998547 
L 336.146593 68.952673 
L 337.541208 70.338845 
L 338.238515 71.293053 
L 338.935823 72.483073 
L 339.981784 74.68906 
L 341.027745 77.660705 
L 342.422359 82.515274 
L 345.908896 95.442868 
L 346.954857 98.269286 
L 347.652165 99.666211 
L 348.698126 101.15736 
L 349.744087 102.133401 
L 350.790048 102.717566 
L 352.184662 103.094947 
L 356.71716 103.581148 
L 360.203697 104.353922 
L 362.295619 104.397466 
L 364.736195 103.882236 
L 366.479463 103.294493 
L 368.920039 102.147936 
L 376.939074 97.750477 
L 381.122918 96.041527 
L 382.866186 95.442888 
L 384.958108 94.992974 
L 386.701377 94.920401 
L 387.747338 95.029281 
L 388.793299 95.27597 
L 390.536567 96.001581 
L 392.628489 97.39129 
L 394.371758 99.023967 
L 396.46368 101.541958 
L 398.206948 104.081803 
L 399.950216 107.075139 
L 401.344831 109.832581 
L 403.0881 113.867214 
L 404.831368 118.522378 
L 406.92329 124.900927 
L 409.363866 133.064598 
L 413.199056 146.010203 
L 415.290978 152.366918 
L 420.520784 167.475108 
L 421.566745 171.353819 
L 422.612706 176.074219 
L 423.658667 181.8177 
L 424.704628 188.878357 
L 425.750589 197.513774 
L 426.79655 207.934111 
L 428.539818 228.314187 
L 432.723662 278.380877 
L 434.118277 291.130625 
L 435.164238 298.938707 
L 436.210199 305.255563 
L 437.25616 310.306131 
L 438.302121 314.260988 
L 439.348082 317.301472 
L 440.394043 319.648956 
L 441.788658 321.971055 
L 442.834619 323.219185 
L 443.88058 324.148027 
L 444.926541 324.815636 
L 446.321156 325.330841 
L 447.715771 325.508641 
L 449.807693 325.370772 
L 451.202307 325.116785 
L 453.642883 324.245976 
L 455.037498 323.291753 
L 456.432113 321.840458 
L 457.478074 320.458083 
L 458.872688 318.248448 
L 461.313264 313.745732 
L 464.102494 307.875172 
L 469.332299 295.691404 
L 478.048641 274.65826 
L 482.232485 265.133991 
L 484.673061 259.840312 
L 487.46229 254.089503 
L 491.994788 245.642908 
L 494.784017 240.915231 
L 498.270554 235.454664 
L 501.757091 230.531049 
L 503.849013 227.813492 
L 506.986896 224.025609 
L 510.822087 220.085241 
L 513.611316 217.614362 
L 516.749199 215.397499 
L 518.841121 214.407025 
L 520.58439 213.87728 
L 523.024965 213.55068 
L 525.465541 213.289436 
L 526.860156 213.039109 
L 529.649385 212.781544 
L 531.044 212.941185 
L 532.438615 213.300353 
L 534.181883 214.047757 
L 536.971113 215.742233 
L 538.017074 216.507709 
L 540.457649 218.550477 
L 544.29284 222.291278 
L 546.733416 225.092295 
L 549.522645 228.252489 
L 552.311874 231.405497 
L 559.982255 241.865871 
L 562.074177 244.238766 
L 563.817446 245.90774 
L 565.212061 246.970848 
L 566.258022 247.598557 
L 567.303983 248.102861 
L 568.698597 248.53825 
L 570.093212 248.763218 
L 571.487827 248.814009 
L 572.533788 248.806751 
L 572.882442 249.594122 
L 578.809554 249.441677 
L 579.855515 249.572319 
L 581.947437 250.116538 
L 582.993398 250.606378 
L 584.388013 251.575131 
L 585.433974 252.50036 
L 586.828589 254.256422 
L 587.525896 255.373899 
L 588.571857 257.423934 
L 589.617818 259.95645 
L 590.663779 263.094913 
L 591.70974 266.940925 
L 593.104355 273.341236 
L 594.49897 281.189162 
L 595.893584 290.71342 
L 597.288199 301.812348 
L 602.169351 343.523064 
L 603.563965 352.945704 
L 604.609926 358.783617 
L 605.655887 363.235525 
L 606.701848 366.41752 
L 607.399156 368.108302 
L 608.445117 369.92244 
L 609.142424 370.785975 
L 610.188385 371.743846 
L 611.234346 372.37879 
L 611.931654 372.723481 
L 614.372229 373.325772 
L 617.510113 373.460017 
L 619.253381 373.300373 
L 621.345303 372.988342 
L 624.134532 372.309852 
L 627.621069 371.11252 
L 632.153567 368.917409 
L 637.034719 365.797088 
L 642.613177 361.388719 
L 656.210671 349.219466 
L 659.697208 346.324096 
L 661.78913 344.644185 
L 665.62432 341.3352 
L 667.716242 339.524698 
L 671.551433 336.22294 
L 679.221814 330.036721 
L 684.102965 326.491908 
L 688.635463 323.636456 
L 691.424693 322.098053 
L 699.792381 317.838433 
L 703.976225 316.173052 
L 706.068147 315.280512 
L 710.949299 313.241414 
L 717.225065 311.572394 
L 719.316987 311.398248 
L 721.060255 311.409119 
L 723.849485 311.986026 
L 725.941407 312.860424 
L 728.033329 314.021496 
L 729.776597 315.222453 
L 734.657749 319.159132 
L 736.052364 320.31657 
L 739.190247 322.696728 
L 742.676784 325.222001 
L 744.071398 326.201635 
L 752.090433 332.65636 
L 754.531009 334.096749 
L 766.03658 342.851816 
L 767.082541 343.537573 
L 770.569078 346.048353 
L 771.963693 347.0171 
L 774.055615 348.417614 
L 775.798883 349.716535 
L 779.982727 352.651823 
L 781.377342 353.645969 
L 791.836952 360.409087 
L 792.53426 360.851737 
L 798.810026 364.588866 
L 800.204641 365.198417 
L 802.645216 366.526371 
L 804.388485 367.154063 
L 805.434446 367.404412 
L 806.829061 368.06839 
L 807.526368 368.26432 
L 808.572329 368.797672 
L 809.269636 368.892014 
L 809.966944 369.008111 
L 810.315597 369.265721 
L 810.664251 369.258468 
L 811.361558 369.38908 
L 813.104827 369.559614 
L 813.802134 369.323777 
L 814.848095 369.643063 
L 815.894056 370.05669 
L 816.591364 369.552355 
L 816.591364 369.552355 
" clip-path="url(#p3525f32398)" style="fill: none; stroke: #1f77b4; stroke-width: 1.5; stroke-linecap: square"/>
   </g>
   <g id="line2d_24">
    <path d="M 84.418636 362.731181 
L 85.115944 363.181098 
L 85.813251 363.369766 
L 86.510558 363.70357 
L 90.345749 364.577983 
L 90.694403 364.541696 
L 91.39171 364.63241 
L 95.575554 364.356652 
L 100.456706 363.92126 
L 104.989203 364.080906 
L 106.035165 363.932148 
L 107.778433 363.507635 
L 111.26497 362.698533 
L 113.705545 362.480834 
L 115.10016 362.259513 
L 117.540736 361.160143 
L 118.238043 360.739258 
L 119.632658 359.465733 
L 120.678619 358.246632 
L 122.073234 356.116825 
L 122.770541 354.828785 
L 123.816502 352.376079 
L 124.862463 349.241228 
L 126.257078 344.118094 
L 128.000346 337.587192 
L 128.697654 335.471897 
L 129.394961 333.922628 
L 129.743615 333.432804 
L 130.092268 333.193342 
L 130.440922 333.095378 
L 130.789576 333.233242 
L 131.486883 333.886342 
L 132.532844 334.953053 
L 132.881498 335.087299 
L 133.230152 335.047383 
L 133.578805 334.807922 
L 134.276113 333.646875 
L 134.97342 331.680335 
L 136.019381 327.725508 
L 138.459957 318.088801 
L 139.505918 314.968467 
L 140.551879 312.410525 
L 141.946494 309.177742 
L 142.992455 306.315022 
L 144.387069 301.743383 
L 148.570913 287.161309 
L 149.268221 285.728168 
L 149.616874 285.256482 
L 149.965528 284.980734 
L 150.314182 284.937169 
L 150.662835 285.136726 
L 151.011489 285.575754 
L 151.360143 286.297778 
L 152.05745 288.561833 
L 152.754758 291.947025 
L 153.452065 296.369904 
L 154.84668 307.269256 
L 156.241294 317.747722 
L 156.938602 321.811409 
L 157.635909 324.826517 
L 158.333216 326.829323 
L 159.030524 327.881546 
L 159.379177 328.088344 
L 159.727831 328.124626 
L 160.076485 327.943213 
L 160.425139 327.613029 
L 161.122446 326.459255 
L 161.819753 324.732192 
L 162.865714 321.470349 
L 164.608983 315.857389 
L 165.30629 314.123078 
L 166.003597 312.943898 
L 166.352251 312.588319 
L 166.700905 312.410535 
L 167.049558 312.388773 
L 167.398212 312.58833 
L 167.746866 312.932997 
L 168.444173 314.173885 
L 169.141481 316.115019 
L 169.838788 318.901527 
L 170.536095 322.544318 
L 171.582056 329.60497 
L 174.022632 347.942307 
L 175.068593 353.787476 
L 175.7659 356.704606 
L 176.463208 358.881586 
L 177.160515 360.430862 
L 177.857823 361.359697 
L 178.55513 361.780574 
L 179.252437 361.697122 
L 179.601091 361.508452 
L 180.298398 360.764659 
L 180.995706 359.538301 
L 181.693013 357.803973 
L 182.39032 355.441964 
L 183.087628 352.379701 
L 183.784935 348.490174 
L 184.830896 341.055828 
L 185.876857 331.593262 
L 186.922818 319.993619 
L 187.968779 306.039264 
L 189.01474 289.461662 
L 190.409355 263.240019 
L 191.80397 232.385146 
L 194.593199 168.50563 
L 195.63916 149.997713 
L 196.685121 135.444659 
L 197.731082 124.171636 
L 198.777043 115.430997 
L 199.823004 108.566329 
L 200.868965 103.131173 
L 201.914926 98.788155 
L 202.960887 95.199839 
L 204.355502 91.397258 
L 205.750117 88.374994 
L 207.144732 85.856902 
L 209.236654 82.878161 
L 210.631268 81.238166 
L 212.72319 79.13734 
L 216.558381 75.900872 
L 221.439532 72.22187 
L 222.485494 71.528886 
L 224.926069 69.877994 
L 225.97203 69.243008 
L 227.715299 68.187177 
L 233.293758 65.291764 
L 239.569524 62.766698 
L 243.404714 61.242576 
L 244.799329 60.767373 
L 248.634519 59.486545 
L 253.167017 58.267495 
L 255.258939 57.839353 
L 257.699515 57.403994 
L 260.140091 57.037529 
L 264.323935 56.660168 
L 266.764511 56.754533 
L 268.159126 56.994026 
L 269.55374 57.418468 
L 270.948355 57.973685 
L 272.34297 58.670165 
L 274.086238 59.838495 
L 275.480853 61.152053 
L 276.526814 62.414667 
L 278.96739 65.63296 
L 280.013351 66.616157 
L 281.059312 67.232908 
L 282.105273 67.577561 
L 284.197195 67.838743 
L 285.243156 67.777127 
L 287.335078 67.316337 
L 289.078346 66.590766 
L 292.216229 64.838373 
L 293.610844 63.92033 
L 293.959498 65.393488 
L 295.702766 64.250468 
L 297.097381 63.299879 
L 300.235264 61.206452 
L 308.602952 56.51868 
L 309.997567 55.985256 
L 311.043528 55.604256 
L 311.740835 55.415667 
L 313.832758 54.976547 
L 317.319294 54.762547 
L 321.154485 55.143527 
L 323.246407 55.560773 
L 331.962749 58.11503 
L 334.403325 59.03663 
L 336.8439 60.571486 
L 337.889861 61.667242 
L 338.935823 63.158391 
L 339.981784 65.121247 
L 341.027745 67.686441 
L 342.422359 71.913403 
L 346.25755 84.282242 
L 347.303511 86.582656 
L 348.349472 88.153635 
L 349.046779 88.930109 
L 349.744087 89.474288 
L 350.790048 90.069389 
L 351.487355 90.305182 
L 352.88197 90.501089 
L 354.625238 90.638938 
L 357.065814 91.023556 
L 360.901004 91.683893 
L 362.644273 91.611319 
L 363.690234 91.4481 
L 366.479463 90.60999 
L 368.571385 89.699326 
L 369.617346 89.093308 
L 376.939074 85.236491 
L 380.076957 84.035554 
L 383.912147 82.936179 
L 385.655416 82.732994 
L 387.747338 82.82734 
L 390.187913 83.563868 
L 392.628489 84.931744 
L 394.371758 86.317732 
L 395.766372 87.714658 
L 397.509641 89.808166 
L 398.904255 91.687572 
L 400.996177 95.138039 
L 402.390792 97.862936 
L 403.785407 100.903394 
L 405.180022 104.386631 
L 407.271944 110.278958 
L 410.061173 118.954119 
L 414.593671 132.912133 
L 420.869437 150.364219 
L 422.264052 155.821146 
L 423.310013 160.980605 
L 424.355974 167.268365 
L 425.401935 174.927682 
L 426.447896 184.350287 
L 427.842511 199.47663 
L 429.934433 225.317222 
L 432.375009 254.865987 
L 433.769623 269.048928 
L 435.164238 280.572359 
L 436.210199 287.527785 
L 437.25616 293.108087 
L 438.302121 297.527307 
L 439.348082 300.923375 
L 440.394043 303.586559 
L 441.440004 305.622013 
L 442.485965 307.193059 
L 443.531926 308.317803 
L 444.577887 309.112441 
L 445.623848 309.656665 
L 447.018463 310.019497 
L 448.761732 310.001358 
L 451.202307 309.464356 
L 452.945576 308.800381 
L 453.991537 308.21988 
L 455.386152 307.00077 
L 456.780766 305.302746 
L 458.872688 301.815967 
L 461.313264 296.903237 
L 465.497108 287.331847 
L 480.489216 250.631748 
L 482.929792 245.290948 
L 486.067675 238.785436 
L 488.508251 234.068665 
L 492.692095 226.783041 
L 496.178632 221.264487 
L 498.270554 218.173166 
L 501.757091 213.438283 
L 505.243628 209.145985 
L 508.381511 205.804337 
L 512.565355 201.936562 
L 515.354584 199.890197 
L 518.143814 198.497032 
L 519.538429 198.119711 
L 520.933043 197.949133 
L 523.722273 197.959908 
L 524.768234 197.959928 
L 529.998039 197.756804 
L 531.392654 198.061531 
L 532.787268 198.558607 
L 535.576498 200.024467 
L 537.319766 201.261752 
L 538.714381 202.448154 
L 542.898225 206.562617 
L 546.384762 210.423134 
L 548.476684 212.723486 
L 551.963221 216.094163 
L 553.706489 218.2167 
L 560.679563 227.116858 
L 562.422831 228.840303 
L 564.514753 230.581871 
L 565.909368 231.488957 
L 568.349944 232.490357 
L 571.139173 232.871306 
L 572.533788 232.867668 
L 572.882442 233.535292 
L 578.809554 233.335725 
L 579.855515 233.390155 
L 581.598784 233.760208 
L 582.993398 234.297211 
L 584.736667 235.422016 
L 585.433974 236.009749 
L 586.479935 237.170852 
L 587.525896 238.741872 
L 588.571857 240.708397 
L 589.617818 243.204667 
L 590.663779 246.274195 
L 591.70974 250.08756 
L 592.755701 254.720861 
L 593.801662 260.261228 
L 594.847623 266.636148 
L 596.242238 276.708224 
L 597.636853 288.667034 
L 602.866658 336.84702 
L 603.912619 344.738525 
L 604.95858 351.367414 
L 605.655887 355.013829 
L 606.701848 359.248041 
L 607.74781 362.480834 
L 608.793771 364.763022 
L 609.839732 366.348585 
L 610.537039 367.161319 
L 611.583 368.028483 
L 612.628961 368.627147 
L 614.023576 369.142361 
L 615.41819 369.385462 
L 617.161459 369.429001 
L 619.253381 369.175015 
L 622.04261 368.38042 
L 624.134532 367.520514 
L 629.015684 364.748505 
L 632.502221 362.190568 
L 635.988758 359.193611 
L 644.7051 350.072121 
L 650.283558 344.005615 
L 653.770095 340.515202 
L 657.953939 336.712775 
L 660.045861 334.920385 
L 665.62432 330.073007 
L 673.294701 323.578392 
L 675.735277 321.720702 
L 681.313736 317.711471 
L 686.194887 314.739886 
L 688.28681 313.600601 
L 690.030078 312.744342 
L 692.470654 311.605057 
L 699.443727 308.172708 
L 706.416801 305.157599 
L 710.251991 303.455926 
L 711.646606 302.893554 
L 713.738528 302.095303 
L 715.481797 301.525693 
L 716.876411 301.141085 
L 718.968333 300.691161 
L 722.106216 300.629504 
L 723.152177 300.836297 
L 724.546792 301.311612 
L 726.290061 302.189669 
L 727.684675 303.100363 
L 730.473905 305.353527 
L 734.309095 308.807679 
L 735.70371 310.041269 
L 738.492939 312.174697 
L 744.420052 316.554052 
L 746.860628 318.647545 
L 749.301203 320.824538 
L 751.044472 322.217784 
L 752.439087 322.98699 
L 753.833701 323.738044 
L 756.622931 325.719083 
L 760.109468 328.476576 
L 761.852736 329.920639 
L 763.247351 331.085304 
L 764.293312 331.92343 
L 767.779848 334.347132 
L 769.871771 335.860129 
L 770.917732 336.603935 
L 772.661 337.855668 
L 773.706961 338.534163 
L 775.101576 339.608147 
L 776.844844 341.012284 
L 777.890805 341.828628 
L 784.863879 347.263812 
L 786.955801 348.889287 
L 788.001762 349.607698 
L 789.396377 350.790504 
L 790.790991 351.846342 
L 792.185606 352.88403 
L 793.231567 353.566138 
L 797.415411 356.686473 
L 798.810026 357.615313 
L 800.204641 358.70742 
L 804.388485 361.178286 
L 805.085792 361.646339 
L 806.480407 362.147034 
L 807.177714 362.575169 
L 807.875022 362.876315 
L 808.572329 362.959762 
L 809.966944 363.91401 
L 810.315597 363.888612 
L 811.710212 364.447366 
L 812.058866 364.450992 
L 812.407519 364.182499 
L 812.756173 364.157103 
L 814.499442 365.017001 
L 814.848095 365.387092 
L 815.196749 365.459653 
L 816.24271 364.998868 
L 816.591364 364.995229 
L 816.591364 364.995229 
" clip-path="url(#p3525f32398)" style="fill: none; stroke: #ff7f0e; stroke-width: 1.5; stroke-linecap: square"/>
   </g>
   <g id="line2d_25">
    <path d="M 84.418636 358.420786 
L 85.464597 359.287948 
L 86.859212 360.216788 
L 87.556519 360.626777 
L 88.602481 361.254471 
L 89.648442 361.689873 
L 90.345749 361.903939 
L 91.043056 362.020041 
L 92.089017 362.393756 
L 92.437671 362.303054 
L 94.180939 362.480836 
L 94.878247 362.397377 
L 97.318823 362.157913 
L 98.364784 362.052691 
L 100.456706 361.943849 
L 101.502667 361.965619 
L 104.989203 362.110747 
L 107.429779 361.573763 
L 108.47574 361.214563 
L 110.567662 360.648557 
L 112.659584 360.427226 
L 114.402853 360.205897 
L 115.10016 360.053508 
L 116.843429 359.346002 
L 118.586697 358.126891 
L 119.981312 356.650176 
L 121.375926 354.614716 
L 122.421887 352.75341 
L 123.467848 350.355117 
L 124.51381 347.340014 
L 125.908424 342.271305 
L 128.000346 334.339874 
L 128.697654 332.308039 
L 129.394961 330.849471 
L 130.092268 330.174605 
L 130.440922 330.152843 
L 130.789576 330.301603 
L 131.486883 330.983707 
L 132.18419 331.825461 
L 132.881498 332.246346 
L 133.230152 332.213688 
L 133.578805 331.996004 
L 134.276113 330.871238 
L 134.97342 328.937351 
L 136.019381 325.015193 
L 138.111303 316.572176 
L 139.157264 313.110761 
L 140.551879 309.406307 
L 142.643801 304.021938 
L 143.689762 300.702047 
L 145.084377 295.618861 
L 147.873606 285.104088 
L 148.919567 282.168811 
L 149.616874 280.97875 
L 149.965528 280.670313 
L 150.314182 280.601378 
L 150.662835 280.779142 
L 151.011489 281.272621 
L 151.708797 283.075835 
L 152.406104 286.040163 
L 153.103411 290.140131 
L 154.149372 297.969964 
L 156.241294 314.514939 
L 157.287255 320.374603 
L 157.984563 322.928917 
L 158.68187 324.543511 
L 159.030524 324.975277 
L 159.379177 325.218378 
L 159.727831 325.254649 
L 160.076485 325.124032 
L 160.425139 324.793854 
L 161.122446 323.65094 
L 161.819753 321.967431 
L 162.865714 318.712861 
L 164.957636 312.102129 
L 165.654944 310.581864 
L 166.352251 309.624017 
L 166.700905 309.388164 
L 167.049558 309.337358 
L 167.398212 309.475257 
L 167.746866 309.758253 
L 168.444173 310.933819 
L 169.141481 312.838667 
L 169.838788 315.625195 
L 170.536095 319.322411 
L 171.582056 326.611634 
L 174.022632 345.489588 
L 175.068593 351.396443 
L 175.7659 354.357109 
L 176.463208 356.599395 
L 177.160515 358.217595 
L 177.857823 359.208133 
L 178.55513 359.621745 
L 178.903784 359.661661 
L 179.252437 359.556442 
L 179.949745 358.972285 
L 180.647052 357.880172 
L 181.344359 356.2801 
L 182.041667 354.030562 
L 182.738974 351.113425 
L 183.436281 347.387184 
L 184.482242 340.221321 
L 185.528203 331.168748 
L 186.574165 320.131523 
L 187.620126 306.627078 
L 188.666087 289.98046 
L 189.712048 269.683904 
L 191.106662 237.508298 
L 193.547238 178.951377 
L 194.593199 158.614855 
L 195.63916 142.411011 
L 196.685121 129.791823 
L 197.731082 119.879378 
L 198.777043 111.980489 
L 199.823004 105.594785 
L 200.868965 100.37371 
L 201.914926 96.070617 
L 202.960887 92.449532 
L 204.355502 88.429312 
L 206.098771 84.296757 
L 207.842039 80.82094 
L 209.585307 77.856491 
L 211.328576 75.327624 
L 213.071844 73.150646 
L 217.255688 68.695129 
L 220.044918 66.042786 
L 223.531455 62.955186 
L 229.458567 58.463463 
L 231.550489 57.081073 
L 234.339719 55.520827 
L 237.826255 53.742962 
L 240.266831 52.494944 
L 249.331827 48.554434 
L 252.121056 47.611143 
L 257.699515 46.214339 
L 259.791437 45.793495 
L 264.672589 45.133098 
L 266.067203 45.089594 
L 268.507779 45.314429 
L 269.902394 45.630052 
L 273.388931 47.041615 
L 274.783545 47.959596 
L 275.829506 48.902867 
L 276.875468 50.042168 
L 278.96739 52.433267 
L 280.362004 53.543477 
L 281.756619 54.127662 
L 283.151234 54.436007 
L 284.545848 54.472294 
L 286.289117 54.290901 
L 287.335078 54.015163 
L 289.078346 53.358506 
L 291.518922 52.150231 
L 293.26219 51.112533 
L 293.610844 50.902111 
L 293.959498 51.939707 
L 295.354113 51.06533 
L 296.748727 50.172881 
L 307.208338 44.313079 
L 309.30026 43.387921 
L 310.346221 43.057784 
L 311.740835 42.615066 
L 314.530065 42.132504 
L 316.273333 42.023623 
L 318.365255 42.049034 
L 320.805831 42.306639 
L 324.292368 42.937967 
L 334.403325 45.876842 
L 335.797939 46.548095 
L 337.192554 47.578556 
L 338.238515 48.677931 
L 338.935823 49.57042 
L 339.981784 51.319337 
L 341.376398 54.490407 
L 342.771013 58.390829 
L 346.25755 68.655306 
L 347.303511 70.828604 
L 348.349472 72.381491 
L 349.395433 73.455434 
L 350.441394 74.148459 
L 351.487355 74.533078 
L 353.579277 74.85238 
L 355.671199 75.044689 
L 359.50639 75.864667 
L 360.901004 76.027926 
L 362.295619 76.035204 
L 364.038887 75.80299 
L 366.479463 75.06638 
L 368.571385 74.195683 
L 375.893113 70.26985 
L 379.379649 68.862069 
L 381.122918 68.314231 
L 384.260801 67.559468 
L 385.655416 67.378116 
L 387.05003 67.418021 
L 388.793299 67.700976 
L 391.233874 68.600825 
L 392.628489 69.355466 
L 395.766372 71.884434 
L 397.858294 74.191983 
L 398.904255 75.530748 
L 400.996177 78.636644 
L 402.042139 80.432581 
L 403.785407 83.923035 
L 405.528675 87.979581 
L 407.271944 92.56201 
L 410.061173 100.663983 
L 413.54771 111.048094 
L 415.639632 116.726381 
L 420.17213 128.565394 
L 421.218091 131.925277 
L 422.264052 135.869182 
L 423.310013 140.741945 
L 424.355974 146.706907 
L 425.401935 153.970688 
L 426.447896 162.968749 
L 427.842511 177.539998 
L 429.934433 203.021382 
L 432.723662 237.065641 
L 434.118277 251.400944 
L 435.512892 263.214649 
L 436.558853 270.358714 
L 437.604814 276.116832 
L 438.650775 280.673952 
L 439.696736 284.236958 
L 440.742697 286.983545 
L 441.788658 289.077043 
L 442.834619 290.662598 
L 443.88058 291.801878 
L 444.926541 292.567446 
L 445.623848 292.926654 
L 447.018463 293.256822 
L 448.064424 293.256832 
L 449.110385 293.097161 
L 451.202307 292.509418 
L 453.294229 291.537026 
L 454.34019 290.79323 
L 455.386152 289.762811 
L 456.780766 287.916001 
L 458.175381 285.50684 
L 459.918649 282.012808 
L 462.010571 277.28877 
L 464.799801 270.583682 
L 471.772874 252.725297 
L 476.654026 240.585073 
L 480.140563 232.537499 
L 482.929792 226.576248 
L 487.113636 218.32554 
L 490.600173 212.219131 
L 492.692095 208.834 
L 496.875939 202.604237 
L 499.665169 198.76909 
L 504.894974 192.328885 
L 506.986896 190.057582 
L 510.124779 187.053391 
L 512.914009 184.69498 
L 516.400545 182.47084 
L 518.492468 181.734311 
L 519.538429 181.563815 
L 521.630351 181.54928 
L 524.768234 181.868603 
L 526.860156 181.806905 
L 528.603424 181.76698 
L 529.998039 181.944795 
L 531.392654 182.311219 
L 533.484576 183.236418 
L 536.622459 185.257332 
L 537.66842 186.13177 
L 540.457649 188.867481 
L 545.687455 194.553005 
L 547.779377 196.893242 
L 549.173991 198.152359 
L 551.614567 200.253063 
L 552.660528 201.381467 
L 554.055143 202.981558 
L 555.449758 204.773815 
L 557.54168 207.378975 
L 558.936294 209.098781 
L 560.330909 210.608206 
L 563.120139 213.071797 
L 566.258022 215.103628 
L 567.652636 215.680515 
L 569.047251 216.043301 
L 571.836481 216.257423 
L 572.533788 216.217517 
L 572.882442 216.591219 
L 573.928403 216.525924 
L 577.066286 216.322759 
L 579.855515 216.391653 
L 581.598784 216.714574 
L 582.296091 216.91414 
L 584.039359 217.70146 
L 585.433974 218.739198 
L 586.479935 219.84581 
L 587.177242 220.741969 
L 588.223203 222.450879 
L 589.269165 224.638701 
L 590.315126 227.385329 
L 591.361087 230.795993 
L 592.755701 236.655621 
L 593.801662 242.072654 
L 594.847623 248.385795 
L 596.242238 258.526846 
L 597.636853 270.786867 
L 600.426082 298.833475 
L 602.866658 323.24458 
L 604.261273 335.337667 
L 605.307234 342.880845 
L 606.353195 348.85664 
L 607.399156 353.435521 
L 608.445117 356.849737 
L 609.142424 358.591313 
L 610.188385 360.608652 
L 611.234346 362.012796 
L 612.628961 363.217369 
L 614.023576 363.939401 
L 615.069537 364.222411 
L 616.464152 364.3494 
L 617.510113 364.284091 
L 619.950688 363.638254 
L 622.04261 362.727565 
L 624.83184 360.996873 
L 627.272416 359.142817 
L 632.502221 354.266392 
L 634.594143 351.98059 
L 639.475294 345.972158 
L 643.310485 340.961483 
L 645.402407 338.171337 
L 647.842983 335.025622 
L 649.586251 332.957509 
L 651.329519 330.954688 
L 655.513364 326.666069 
L 659.697208 322.94706 
L 662.137784 320.871685 
L 666.670281 316.913225 
L 671.900087 312.588294 
L 675.735277 309.798188 
L 681.313736 306.097312 
L 683.405658 304.874594 
L 687.938156 302.527079 
L 690.727385 301.300736 
L 693.516615 300.030845 
L 699.792381 296.932287 
L 700.838342 296.467868 
L 704.673532 294.704518 
L 705.719494 294.225585 
L 711.297952 291.431774 
L 712.692567 290.844052 
L 713.738528 290.379593 
L 717.922372 288.92469 
L 719.316987 288.576348 
L 721.060255 288.376781 
L 722.803524 288.561823 
L 724.546792 289.182244 
L 726.290061 290.180057 
L 727.684675 291.224981 
L 729.776597 293.064553 
L 737.098325 300.128808 
L 739.5389 301.91391 
L 742.32813 304.014701 
L 744.768706 306.006626 
L 746.511974 307.599429 
L 749.301203 310.309775 
L 751.044472 311.728427 
L 752.439087 312.435915 
L 753.833701 313.114441 
L 754.879662 313.796534 
L 763.596004 320.991431 
L 764.641965 321.836804 
L 766.03658 322.72936 
L 767.082541 323.440528 
L 769.523117 325.254649 
L 773.358307 328.117379 
L 776.147537 330.334246 
L 778.239459 332.104848 
L 780.331381 333.868193 
L 781.725996 335.145347 
L 784.515225 337.590826 
L 785.212532 338.138694 
L 786.607147 339.524683 
L 788.001762 340.758298 
L 788.699069 341.375105 
L 789.74503 342.274939 
L 791.139645 343.526677 
L 792.185606 344.473663 
L 793.580221 345.787104 
L 798.112719 349.760071 
L 799.15868 350.522015 
L 800.204641 351.537926 
L 800.901948 352.122083 
L 802.296563 353.083576 
L 803.342524 353.849151 
L 806.480407 355.772145 
L 808.223675 356.635664 
L 809.61829 357.4738 
L 810.315597 357.814872 
L 810.664251 357.843891 
L 811.361558 358.293795 
L 812.058866 358.638493 
L 813.453481 358.449815 
L 814.848095 358.957767 
L 815.545403 358.939622 
L 816.591364 359.458481 
L 816.591364 359.458481 
" clip-path="url(#p3525f32398)" style="fill: none; stroke: #2ca02c; stroke-width: 1.5; stroke-linecap: square"/>
   </g>
   <g id="line2d_26">
    <path d="M 84.418636 363.275428 
L 85.115944 363.826927 
L 86.859212 364.327622 
L 87.207866 364.548951 
L 88.253827 364.784792 
L 88.951134 365.049664 
L 89.997095 365.107715 
L 90.345749 365.241961 
L 93.483632 365.165753 
L 94.180939 365.071416 
L 95.2269 364.919037 
L 98.01613 364.414708 
L 99.062091 364.269579 
L 99.759398 364.186132 
L 102.199974 364.120827 
L 103.594589 364.149851 
L 105.337857 364.041006 
L 107.778433 363.387896 
L 109.521701 362.760211 
L 110.567662 362.528001 
L 115.448814 361.726162 
L 116.843429 361.112968 
L 118.238043 360.21316 
L 119.632658 358.921481 
L 120.678619 357.647953 
L 122.073234 355.550811 
L 123.119195 353.555262 
L 124.165156 351.026352 
L 125.211117 347.931423 
L 128.697654 337.003027 
L 129.394961 335.77667 
L 129.743615 335.424709 
L 130.092268 335.232425 
L 130.440922 335.236054 
L 131.138229 335.624276 
L 132.532844 336.876049 
L 132.881498 336.973993 
L 133.230152 336.952231 
L 133.578805 336.712769 
L 133.927459 336.288256 
L 134.624766 334.94943 
L 135.322074 332.968385 
L 136.716688 328.081082 
L 138.111303 323.280872 
L 139.157264 320.287536 
L 140.551879 317.022085 
L 142.295147 313.186994 
L 143.689762 309.341012 
L 145.084377 304.878227 
L 147.873606 295.600688 
L 148.919567 293.002846 
L 149.616874 291.928872 
L 149.965528 291.656762 
L 150.314182 291.605971 
L 150.662835 291.776508 
L 151.011489 292.215496 
L 151.708797 293.801082 
L 152.406104 296.427953 
L 153.103411 300.012671 
L 154.149372 306.855648 
L 156.241294 321.281679 
L 156.938602 324.924486 
L 157.635909 327.616678 
L 158.333216 329.438062 
L 159.030524 330.40683 
L 159.379177 330.599129 
L 160.076485 330.504773 
L 160.425139 330.22904 
L 161.122446 329.220377 
L 161.819753 327.765428 
L 163.214368 323.9376 
L 164.608983 320.004525 
L 165.30629 318.440731 
L 166.003597 317.326857 
L 166.700905 316.786236 
L 167.049558 316.728188 
L 167.398212 316.833419 
L 167.746866 317.109163 
L 168.444173 318.096069 
L 169.141481 319.768687 
L 169.838788 322.203269 
L 170.536095 325.465102 
L 171.582056 331.8436 
L 174.022632 348.330544 
L 175.068593 353.537121 
L 175.7659 356.174876 
L 176.463208 358.203091 
L 177.160515 359.639894 
L 177.857823 360.528821 
L 178.55513 360.946074 
L 179.252437 360.851737 
L 179.949745 360.325641 
L 180.647052 359.320599 
L 181.344359 357.833 
L 182.041667 355.81931 
L 182.738974 353.196057 
L 183.436281 349.945121 
L 184.482242 343.704456 
L 185.528203 335.903663 
L 186.574165 326.397563 
L 187.620126 314.776162 
L 188.666087 300.39364 
L 189.712048 282.771088 
L 191.106662 254.416073 
L 193.895892 194.531273 
L 194.941853 176.698187 
L 195.987814 162.431848 
L 197.033775 151.118839 
L 198.079736 142.098986 
L 199.125697 134.693595 
L 200.171658 128.623514 
L 201.566273 122.078128 
L 202.960887 116.860652 
L 204.355502 112.524789 
L 206.098771 107.960392 
L 207.842039 103.994796 
L 210.631268 98.693728 
L 213.420498 94.40885 
L 215.861074 91.190414 
L 217.952996 88.62892 
L 220.044918 86.219829 
L 223.531455 82.522531 
L 225.97203 80.102504 
L 230.504528 76.162218 
L 233.991065 73.542563 
L 240.266831 69.489757 
L 246.193944 66.130017 
L 247.937212 65.27363 
L 252.121056 63.434129 
L 253.515671 62.8645 
L 261.883359 60.433617 
L 267.113165 59.562798 
L 268.507779 59.533748 
L 270.948355 59.729635 
L 273.040277 60.074369 
L 275.132199 60.847143 
L 276.526814 61.739795 
L 280.013351 64.177956 
L 281.407965 64.682269 
L 283.151234 64.943493 
L 284.894502 64.976161 
L 286.637771 64.776655 
L 289.775654 63.8405 
L 292.216229 62.722992 
L 293.610844 62.073551 
L 293.959498 63.299838 
L 295.354113 62.563351 
L 298.491996 60.981434 
L 299.537957 60.509789 
L 303.721801 58.601393 
L 304.767762 58.155077 
L 305.465069 57.799427 
L 307.556991 56.972091 
L 308.951606 56.43515 
L 312.089489 55.528165 
L 316.621987 55.023709 
L 318.016602 55.005556 
L 324.292368 55.61875 
L 325.338329 55.778391 
L 327.081597 56.050531 
L 328.476212 56.369834 
L 333.00871 57.309669 
L 334.054671 57.552698 
L 336.495247 58.52508 
L 337.541208 59.14915 
L 338.935823 60.375477 
L 340.330437 62.135147 
L 341.725052 64.526226 
L 343.816974 69.054378 
L 346.25755 74.322615 
L 347.303511 76.089665 
L 348.349472 77.366773 
L 349.395433 78.302868 
L 350.441394 78.952308 
L 351.487355 79.325969 
L 352.88197 79.605326 
L 354.973892 79.790439 
L 359.50639 80.704802 
L 360.552351 80.857186 
L 362.295619 80.907967 
L 363.690234 80.780994 
L 366.828117 80.091669 
L 369.268693 79.079281 
L 369.966 78.694662 
L 371.011961 78.135908 
L 372.755229 77.18168 
L 373.80119 76.684644 
L 375.893113 75.773981 
L 382.866186 73.680391 
L 386.352723 73.230518 
L 389.490606 73.593303 
L 390.536567 73.894473 
L 392.628489 74.663649 
L 395.069065 76.038802 
L 397.160987 77.628057 
L 399.601563 79.953739 
L 401.344831 82.021877 
L 403.436753 85.018811 
L 405.180022 87.928638 
L 407.271944 92.086726 
L 409.015212 95.968954 
L 412.850403 105.021496 
L 415.290978 110.503834 
L 418.080208 116.316392 
L 419.474823 119.244351 
L 421.218091 123.525814 
L 422.264052 126.588105 
L 423.310013 130.357774 
L 424.355974 134.962076 
L 425.401935 140.654898 
L 426.447896 147.719153 
L 427.842511 159.38769 
L 429.585779 176.676436 
L 433.42097 217.291481 
L 434.815584 229.892515 
L 436.210199 240.556033 
L 437.25616 247.115944 
L 438.302121 252.485794 
L 439.348082 256.712726 
L 440.394043 260.130606 
L 441.440004 262.808309 
L 442.485965 264.887282 
L 443.531926 266.436551 
L 444.577887 267.52139 
L 445.623848 268.261598 
L 447.018463 268.747809 
L 448.064424 268.791363 
L 449.110385 268.642547 
L 450.156346 268.399447 
L 453.294229 267.093248 
L 454.34019 266.393047 
L 455.386152 265.456912 
L 456.083459 264.684077 
L 457.478074 262.732046 
L 458.872688 260.322885 
L 460.615957 256.926807 
L 464.102494 249.474355 
L 470.029606 236.067879 
L 475.259411 224.598837 
L 477.699987 219.649882 
L 480.83787 213.833716 
L 482.929792 210.230824 
L 487.113636 203.620142 
L 491.646134 197.510054 
L 496.875939 191.193203 
L 500.362476 187.314614 
L 505.243628 182.278551 
L 508.032857 179.789548 
L 512.565355 176.400779 
L 515.005931 175.025585 
L 516.749199 174.31093 
L 518.492468 173.969815 
L 519.887082 173.98437 
L 521.630351 174.343517 
L 523.024965 174.746309 
L 525.465541 175.254221 
L 527.557463 175.330433 
L 528.952078 175.424738 
L 530.346693 175.69328 
L 532.089961 176.357153 
L 533.833229 177.300567 
L 537.319766 179.883894 
L 538.714381 181.251749 
L 548.12803 190.663499 
L 549.871299 191.63956 
L 550.91726 192.18014 
L 552.311874 193.090824 
L 554.403797 194.934025 
L 556.844372 197.219822 
L 559.284948 199.440364 
L 562.074177 201.203632 
L 565.560714 202.941653 
L 567.652636 203.547488 
L 568.698597 203.757951 
L 570.441866 203.903036 
L 572.533788 203.845018 
L 572.882442 204.46919 
L 575.671671 204.196989 
L 578.809554 204.088109 
L 580.901476 204.102664 
L 583.342052 204.505375 
L 585.08532 205.183885 
L 586.828589 206.413892 
L 587.87455 207.582181 
L 588.571857 208.496483 
L 589.966472 210.996402 
L 591.012433 213.478106 
L 591.70974 215.488226 
L 592.755701 219.080222 
L 593.453009 221.859456 
L 594.847623 228.687929 
L 596.242238 237.152668 
L 597.636853 247.747272 
L 599.380121 263.323489 
L 602.169351 291.007302 
L 604.609926 314.293621 
L 606.004541 325.127671 
L 607.050502 331.807313 
L 608.096463 337.162663 
L 609.142424 341.313418 
L 610.188385 344.50998 
L 611.234346 346.835672 
L 612.280307 348.475662 
L 613.326268 349.66212 
L 614.372229 350.420425 
L 615.41819 350.808652 
L 616.464152 350.946521 
L 617.858766 350.761482 
L 618.904727 350.366 
L 619.950688 349.818135 
L 622.04261 348.345046 
L 624.83184 345.732681 
L 629.015684 341.001408 
L 632.153567 337.046582 
L 635.988758 331.712998 
L 645.402407 317.798533 
L 647.494329 315.091831 
L 650.632212 311.713866 
L 654.118749 308.902004 
L 655.16471 308.223514 
L 656.559325 307.349051 
L 662.486437 304.24691 
L 664.229706 303.180198 
L 668.762203 300.426339 
L 672.24874 298.652073 
L 675.03797 297.432992 
L 676.781238 296.787161 
L 683.754312 294.214679 
L 687.240848 293.09715 
L 688.984117 292.600114 
L 690.727385 292.077637 
L 692.122 291.682163 
L 694.911229 290.499329 
L 696.654498 289.679331 
L 703.627571 286.519116 
L 710.251991 282.832745 
L 712.343913 281.595511 
L 714.784489 280.289364 
L 717.573719 278.954115 
L 720.711602 278.090604 
L 722.45487 278.112366 
L 723.500831 278.326457 
L 724.895446 278.96865 
L 726.290061 279.868458 
L 729.07929 282.473588 
L 736.401017 290.412251 
L 737.446978 291.261237 
L 739.5389 292.759755 
L 740.584861 293.459987 
L 745.814667 297.661548 
L 749.998511 301.699869 
L 750.695818 302.189679 
L 751.393126 302.519852 
L 752.439087 302.748448 
L 753.833701 303.09311 
L 755.228316 303.840555 
L 758.017545 305.741774 
L 760.458121 307.566796 
L 764.641965 310.75604 
L 766.733887 311.757451 
L 771.266385 314.406089 
L 773.009654 315.523602 
L 774.752922 316.626611 
L 777.890805 319.144627 
L 778.936766 320.000896 
L 782.423303 322.918031 
L 788.699069 329.013558 
L 789.74503 330.178244 
L 791.488299 331.959737 
L 794.626182 335.21791 
L 795.672143 336.393487 
L 798.461372 339.187242 
L 800.204641 341.153797 
L 801.250602 342.002799 
L 803.342524 343.998363 
L 805.085792 345.311814 
L 805.7831 345.812497 
L 806.829061 346.650648 
L 809.61829 348.348664 
L 810.315597 348.457527 
L 811.710212 349.281138 
L 813.104827 350.024941 
L 813.453481 350.297066 
L 814.150788 350.355109 
L 815.545403 351.262188 
L 816.591364 351.091663 
L 816.591364 351.091663 
" clip-path="url(#p3525f32398)" style="fill: none; stroke: #d62728; stroke-width: 1.5; stroke-linecap: square"/>
   </g>
   <g id="line2d_27">
    <path d="M 84.418636 363.554805 
L 85.115944 363.808789 
L 85.464597 363.823301 
L 86.161905 364.026481 
L 87.556519 364.251433 
L 90.345749 364.222409 
L 90.694403 364.091792 
L 91.043056 364.233295 
L 94.180939 363.569317 
L 94.878247 363.333484 
L 99.759398 361.874915 
L 105.337857 361.083938 
L 111.26497 359.31697 
L 115.448814 358.642114 
L 117.192082 357.92735 
L 118.586697 357.034784 
L 119.981312 355.8447 
L 121.375926 354.324453 
L 122.770541 352.426863 
L 123.816502 350.638118 
L 125.211117 347.583109 
L 127.651693 341.962883 
L 128.349 340.667596 
L 129.046307 339.749645 
L 129.743615 339.216281 
L 130.440922 339.198148 
L 131.138229 339.550088 
L 132.532844 340.264865 
L 133.230152 340.097951 
L 133.927459 339.426724 
L 134.624766 338.301953 
L 135.670727 336.063309 
L 137.762649 331.310272 
L 139.505918 328.396751 
L 143.341108 323.168409 
L 145.084377 320.091628 
L 147.524952 315.675991 
L 148.22226 314.674595 
L 148.919567 313.938026 
L 149.616874 313.557072 
L 149.965528 313.50991 
L 150.662835 313.785668 
L 151.360143 314.64919 
L 152.05745 315.998897 
L 152.754758 317.860221 
L 153.800719 321.568323 
L 156.241294 331.20502 
L 156.938602 333.298553 
L 157.635909 334.822426 
L 158.333216 335.831089 
L 159.030524 336.331815 
L 159.727831 336.447917 
L 160.425139 336.095952 
L 161.122446 335.431997 
L 162.168407 333.9444 
L 164.957636 329.594084 
L 165.654944 328.966391 
L 166.003597 328.694266 
L 166.700905 328.581787 
L 167.398212 328.784962 
L 167.746866 329.006301 
L 168.444173 329.757349 
L 169.141481 330.889387 
L 169.838788 332.489441 
L 170.536095 334.535797 
L 171.582056 338.530529 
L 174.371286 350.402285 
L 175.417247 353.729425 
L 176.463208 356.243821 
L 177.160515 357.426642 
L 177.857823 358.213964 
L 178.55513 358.591318 
L 179.252437 358.616716 
L 179.949745 358.23211 
L 180.647052 357.441149 
L 181.344359 356.243821 
L 182.041667 354.592949 
L 182.738974 352.481293 
L 183.784935 348.377716 
L 184.830896 343.327131 
L 186.225511 335.312251 
L 187.620126 325.983945 
L 189.01474 315.120856 
L 190.409355 302.730274 
L 193.198584 277.096481 
L 194.244545 269.099729 
L 195.290506 262.438195 
L 196.336468 256.94496 
L 197.731082 250.965555 
L 199.125697 245.940398 
L 200.868965 240.479842 
L 202.960887 234.511322 
L 212.025883 209.653917 
L 217.952996 191.574203 
L 222.834147 176.280941 
L 227.017991 163.447794 
L 232.945104 146.358534 
L 236.780294 136.177548 
L 240.615485 126.834733 
L 243.056061 121.352394 
L 245.147983 116.94774 
L 248.634519 110.155604 
L 251.423749 105.239236 
L 254.910286 99.785866 
L 257.699515 95.889042 
L 263.975281 88.483814 
L 268.856433 83.454987 
L 273.737584 79.130102 
L 276.875468 76.873335 
L 279.316043 75.516355 
L 281.407965 74.692719 
L 283.848541 74.11947 
L 285.940463 73.84733 
L 287.335078 73.607859 
L 289.427 73.074516 
L 293.610844 71.409089 
L 293.959498 72.983748 
L 296.05142 72.03322 
L 313.13545 64.130773 
L 314.181411 63.822427 
L 316.273333 63.234624 
L 319.062563 62.614152 
L 321.851792 62.146105 
L 325.338329 61.64545 
L 328.824866 61.213588 
L 334.751978 60.952303 
L 336.495247 61.093852 
L 339.63313 61.616441 
L 344.165628 62.167917 
L 345.908896 62.487138 
L 346.954857 62.820956 
L 348.698126 63.579317 
L 351.138701 64.794789 
L 356.71716 67.084224 
L 358.460429 67.951385 
L 360.901004 68.651667 
L 365.782156 69.23943 
L 367.525424 69.123251 
L 369.617346 68.488366 
L 373.452537 66.594425 
L 377.636381 65.012407 
L 380.076957 64.319443 
L 384.958108 63.32161 
L 392.628489 62.868159 
L 396.46368 62.853644 
L 404.134061 63.412378 
L 407.620597 64.134391 
L 410.061173 65.052394 
L 412.153095 66.198992 
L 413.54771 67.2584 
L 414.942325 68.608021 
L 417.3829 71.445457 
L 419.823476 74.202798 
L 421.218091 75.414732 
L 423.310013 77.025739 
L 424.704628 78.077911 
L 425.401935 78.665714 
L 427.842511 81.245423 
L 429.237126 83.09948 
L 430.283087 84.768423 
L 431.677701 87.333658 
L 432.723662 89.702884 
L 433.769623 92.768773 
L 434.815584 96.625733 
L 435.861545 101.29531 
L 437.25616 108.617171 
L 438.999429 119.001281 
L 442.834619 142.186013 
L 444.229234 149.33014 
L 445.275195 153.821882 
L 446.321156 157.46472 
L 447.367117 160.262108 
L 448.064424 161.66995 
L 448.761732 162.718401 
L 449.807693 163.70542 
L 450.505 164.021022 
L 451.202307 164.173426 
L 452.248268 164.046433 
L 452.945576 163.879535 
L 454.34019 163.288153 
L 457.12942 161.655374 
L 460.267303 159.598174 
L 463.75384 157.972693 
L 465.845762 156.985817 
L 467.58903 155.795715 
L 469.680952 154.014252 
L 472.470182 151.325704 
L 475.259411 148.666185 
L 477.351333 147.004417 
L 480.140563 145.342568 
L 482.232485 144.548063 
L 488.159597 143.11853 
L 490.251519 142.759363 
L 492.692095 142.389218 
L 495.481325 141.70713 
L 498.619208 140.517008 
L 500.362476 139.660683 
L 502.454398 138.485239 
L 504.894974 137.091932 
L 507.684203 135.767539 
L 510.473433 134.715367 
L 514.657277 133.819198 
L 515.703238 133.768417 
L 516.749199 133.906286 
L 517.79516 134.182024 
L 519.189775 134.936726 
L 519.887082 135.422846 
L 521.281697 136.700015 
L 524.41958 139.8349 
L 525.814195 140.716636 
L 527.20881 141.27169 
L 528.952078 141.917532 
L 531.392654 143.11485 
L 533.484576 144.642388 
L 536.273805 147.247487 
L 537.66842 148.800395 
L 539.411688 150.944745 
L 543.944186 155.527194 
L 546.733416 157.646113 
L 547.430723 157.990826 
L 548.12803 158.08881 
L 548.825338 157.92551 
L 549.522645 157.555426 
L 551.963221 156.173076 
L 553.009182 155.853713 
L 558.936294 154.529462 
L 559.982255 154.032386 
L 564.1661 151.068119 
L 566.258022 150.131902 
L 569.744558 149.061659 
L 572.533788 148.430311 
L 572.882442 150.110232 
L 575.323017 149.257546 
L 579.158208 148.553686 
L 585.433974 146.492805 
L 590.663779 144.330363 
L 592.755701 143.974713 
L 593.801662 143.927591 
L 594.847623 144.159785 
L 596.242238 144.849151 
L 598.682814 146.761225 
L 599.728775 148.031158 
L 600.426082 149.116018 
L 601.12339 150.483914 
L 602.169351 153.089013 
L 603.215312 156.394334 
L 604.261273 160.632192 
L 605.307234 165.911406 
L 606.353195 172.046763 
L 607.74781 181.585485 
L 610.188385 197.938176 
L 611.234346 203.787021 
L 612.280307 208.601705 
L 613.326268 212.407863 
L 614.372229 215.216127 
L 615.41819 217.088276 
L 616.115498 217.842998 
L 616.812805 218.336416 
L 617.510113 218.532323 
L 618.20742 218.506963 
L 619.253381 218.125973 
L 620.996649 216.70012 
L 622.739918 214.780666 
L 627.621069 209.008115 
L 629.364338 207.310061 
L 632.153567 205.383452 
L 634.942797 203.591113 
L 636.337411 202.611413 
L 638.08068 201.522996 
L 639.475294 200.82993 
L 640.521255 200.514348 
L 641.91587 200.39821 
L 642.961831 200.626826 
L 643.659139 200.942449 
L 644.7051 201.664483 
L 645.751061 202.763838 
L 646.448368 203.739838 
L 647.494329 205.528598 
L 648.888944 208.463856 
L 650.283558 211.888953 
L 654.816056 224.515398 
L 657.256632 231.002786 
L 659.348554 235.933598 
L 661.091823 239.351427 
L 662.486437 241.648131 
L 663.881052 243.531267 
L 665.972974 246.049268 
L 672.946048 253.458206 
L 676.781238 257.492849 
L 678.524506 259.056622 
L 680.965082 260.874402 
L 683.405658 262.347478 
L 686.543541 263.816957 
L 687.938156 264.223337 
L 689.332771 264.560743 
L 691.773346 264.912693 
L 692.819307 264.836501 
L 693.865268 264.564371 
L 695.259883 264.041853 
L 701.884303 260.192273 
L 702.930264 259.448498 
L 705.719494 257.188061 
L 707.462762 255.598856 
L 714.087182 248.658017 
L 717.225065 245.468722 
L 718.61968 244.224241 
L 720.014294 243.219191 
L 721.060255 242.729331 
L 721.757563 242.489921 
L 722.45487 242.399204 
L 723.849485 242.693045 
L 724.895446 243.33169 
L 725.941407 244.289527 
L 726.987368 245.63928 
L 729.07929 248.814009 
L 733.960442 257.188061 
L 735.355056 259.317896 
L 736.749671 260.976025 
L 738.144286 262.162477 
L 743.025437 265.264623 
L 744.768706 266.607108 
L 746.860628 268.667948 
L 748.255242 270.079368 
L 749.998511 271.436348 
L 750.347165 271.585103 
L 751.044472 271.556084 
L 751.393126 271.432688 
L 752.090433 270.877573 
L 753.485048 269.604043 
L 754.531009 269.208559 
L 755.925623 269.117862 
L 758.366199 269.426258 
L 759.760814 269.698378 
L 761.504082 270.362384 
L 762.898697 270.982764 
L 763.944658 271.218628 
L 764.641965 271.058986 
L 765.339273 270.623587 
L 766.733887 269.516975 
L 767.779848 268.954603 
L 769.871771 268.116451 
L 773.358307 266.79213 
L 774.404268 266.447437 
L 776.147537 266.171678 
L 779.982727 266.055581 
L 782.074649 266.255148 
L 783.469264 266.70867 
L 785.561186 267.855218 
L 788.350416 270.148302 
L 790.442338 272.466747 
L 791.488299 273.718546 
L 793.231567 276.222073 
L 794.277528 278.025298 
L 795.323489 279.879354 
L 801.250602 290.216333 
L 802.296563 291.957911 
L 805.085792 296.184842 
L 805.7831 296.935916 
L 806.829061 298.151387 
L 808.920983 300.31385 
L 810.664251 301.674438 
L 811.361558 302.403719 
L 811.710212 302.704858 
L 812.058866 302.828253 
L 812.407519 302.661324 
L 813.104827 302.882632 
L 814.150788 303.332582 
L 814.848095 303.183817 
L 815.545403 303.397883 
L 816.591364 303.03867 
L 816.591364 303.03867 
" clip-path="url(#p3525f32398)" style="fill: none; stroke: #9467bd; stroke-width: 1.5; stroke-linecap: square"/>
   </g>
   <g id="patch_3">
    <path d="M 47.81 390.04 
L 47.81 25.44 
" style="fill: none; stroke: #000000; stroke-width: 0.8; stroke-linejoin: miter; stroke-linecap: square"/>
   </g>
   <g id="patch_4">
    <path d="M 853.2 390.04 
L 853.2 25.44 
" style="fill: none; stroke: #000000; stroke-width: 0.8; stroke-linejoin: miter; stroke-linecap: square"/>
   </g>
   <g id="patch_5">
    <path d="M 47.81 390.04 
L 853.2 390.04 
" style="fill: none; stroke: #000000; stroke-width: 0.8; stroke-linejoin: miter; stroke-linecap: square"/>
   </g>
   <g id="patch_6">
    <path d="M 47.81 25.44 
L 853.2 25.44 
" style="fill: none; stroke: #000000; stroke-width: 0.8; stroke-linejoin: miter; stroke-linecap: square"/>
   </g>
   <g id="text_14">
    <!-- Mean spectral signature by dehydration stage -->
    <g transform="translate(311.959375 19.44) scale(0.12 -0.12)">
     <defs>
      <path id="DejaVuSans-73" d="M 2834 3397 
L 2834 2853 
Q 2591 2978 2328 3040 
Q 2066 3103 1784 3103 
Q 1356 3103 1142 2972 
Q 928 2841 928 2578 
Q 928 2378 1081 2264 
Q 1234 2150 1697 2047 
L 1894 2003 
Q 2506 1872 2764 1633 
Q 3022 1394 3022 966 
Q 3022 478 2636 193 
Q 2250 -91 1575 -91 
Q 1294 -91 989 -36 
Q 684 19 347 128 
L 347 722 
Q 666 556 975 473 
Q 1284 391 1588 391 
Q 1994 391 2212 530 
Q 2431 669 2431 922 
Q 2431 1156 2273 1281 
Q 2116 1406 1581 1522 
L 1381 1569 
Q 847 1681 609 1914 
Q 372 2147 372 2553 
Q 372 3047 722 3315 
Q 1072 3584 1716 3584 
Q 2034 3584 2315 3537 
Q 2597 3491 2834 3397 
z
" transform="scale(0.015625)"/>
      <path id="DejaVuSans-70" d="M 1159 525 
L 1159 -1331 
L 581 -1331 
L 581 3500 
L 1159 3500 
L 1159 2969 
Q 1341 3281 1617 3432 
Q 1894 3584 2278 3584 
Q 2916 3584 3314 3078 
Q 3713 2572 3713 1747 
Q 3713 922 3314 415 
Q 2916 -91 2278 -91 
Q 1894 -91 1617 61 
Q 1341 213 1159 525 
z
M 3116 1747 
Q 3116 2381 2855 2742 
Q 2594 3103 2138 3103 
Q 1681 3103 1420 2742 
Q 1159 2381 1159 1747 
Q 1159 1113 1420 752 
Q 1681 391 2138 391 
Q 2594 391 2855 752 
Q 3116 1113 3116 1747 
z
" transform="scale(0.015625)"/>
      <path id="DejaVuSans-69" d="M 603 3500 
L 1178 3500 
L 1178 0 
L 603 0 
L 603 3500 
z
M 603 4863 
L 1178 4863 
L 1178 4134 
L 603 4134 
L 603 4863 
z
" transform="scale(0.015625)"/>
      <path id="DejaVuSans-75" d="M 544 1381 
L 544 3500 
L 1119 3500 
L 1119 1403 
Q 1119 906 1312 657 
Q 1506 409 1894 409 
Q 2359 409 2629 706 
Q 2900 1003 2900 1516 
L 2900 3500 
L 3475 3500 
L 3475 0 
L 2900 0 
L 2900 538 
Q 2691 219 2414 64 
Q 2138 -91 1772 -91 
Q 1169 -91 856 284 
Q 544 659 544 1381 
z
M 1991 3584 
L 1991 3584 
z
" transform="scale(0.015625)"/>
      <path id="DejaVuSans-62" d="M 3116 1747 
Q 3116 2381 2855 2742 
Q 2594 3103 2138 3103 
Q 1681 3103 1420 2742 
Q 1159 2381 1159 1747 
Q 1159 1113 1420 752 
Q 1681 391 2138 391 
Q 2594 391 2855 752 
Q 3116 1113 3116 1747 
z
M 1159 2969 
Q 1341 3281 1617 3432 
Q 1894 3584 2278 3584 
Q 2916 3584 3314 3078 
Q 3713 2572 3713 1747 
Q 3713 922 3314 415 
Q 2916 -91 2278 -91 
Q 1894 -91 1617 61 
Q 1341 213 1159 525 
L 1159 0 
L 581 0 
L 581 4863 
L 1159 4863 
L 1159 2969 
z
" transform="scale(0.015625)"/>
      <path id="DejaVuSans-79" d="M 2059 -325 
Q 1816 -950 1584 -1140 
Q 1353 -1331 966 -1331 
L 506 -1331 
L 506 -850 
L 844 -850 
Q 1081 -850 1212 -737 
Q 1344 -625 1503 -206 
L 1606 56 
L 191 3500 
L 800 3500 
L 1894 763 
L 2988 3500 
L 3597 3500 
L 2059 -325 
z
" transform="scale(0.015625)"/>
      <path id="DejaVuSans-64" d="M 2906 2969 
L 2906 4863 
L 3481 4863 
L 3481 0 
L 2906 0 
L 2906 525 
Q 2725 213 2448 61 
Q 2172 -91 1784 -91 
Q 1150 -91 751 415 
Q 353 922 353 1747 
Q 353 2572 751 3078 
Q 1150 3584 1784 3584 
Q 2172 3584 2448 3432 
Q 2725 3281 2906 2969 
z
M 947 1747 
Q 947 1113 1208 752 
Q 1469 391 1925 391 
Q 2381 391 2643 752 
Q 2906 1113 2906 1747 
Q 2906 2381 2643 2742 
Q 2381 3103 1925 3103 
Q 1469 3103 1208 2742 
Q 947 2381 947 1747 
z
" transform="scale(0.015625)"/>
      <path id="DejaVuSans-6f" d="M 1959 3097 
Q 1497 3097 1228 2736 
Q 959 2375 959 1747 
Q 959 1119 1226 758 
Q 1494 397 1959 397 
Q 2419 397 2687 759 
Q 2956 1122 2956 1747 
Q 2956 2369 2687 2733 
Q 2419 3097 1959 3097 
z
M 1959 3584 
Q 2709 3584 3137 3096 
Q 3566 2609 3566 1747 
Q 3566 888 3137 398 
Q 2709 -91 1959 -91 
Q 1206 -91 779 398 
Q 353 888 353 1747 
Q 353 2609 779 3096 
Q 1206 3584 1959 3584 
z
" transform="scale(0.015625)"/>
     </defs>
     <use xlink:href="#DejaVuSans-4d"/>
     <use xlink:href="#DejaVuSans-65" transform="translate(86.279297 0)"/>
     <use xlink:href="#DejaVuSans-61" transform="translate(147.802734 0)"/>
     <use xlink:href="#DejaVuSans-6e" transform="translate(209.082031 0)"/>
     <use xlink:href="#DejaVuSans-20" transform="translate(272.460938 0)"/>
     <use xlink:href="#DejaVuSans-73" transform="translate(304.248047 0)"/>
     <use xlink:href="#DejaVuSans-70" transform="translate(356.347656 0)"/>
     <use xlink:href="#DejaVuSans-65" transform="translate(419.824219 0)"/>
     <use xlink:href="#DejaVuSans-63" transform="translate(481.347656 0)"/>
     <use xlink:href="#DejaVuSans-74" transform="translate(536.328125 0)"/>
     <use xlink:href="#DejaVuSans-72" transform="translate(575.537109 0)"/>
     <use xlink:href="#DejaVuSans-61" transform="translate(616.650391 0)"/>
     <use xlink:href="#DejaVuSans-6c" transform="translate(677.929688 0)"/>
     <use xlink:href="#DejaVuSans-20" transform="translate(705.712891 0)"/>
     <use xlink:href="#DejaVuSans-73" transform="translate(737.5 0)"/>
     <use xlink:href="#DejaVuSans-69" transform="translate(789.599609 0)"/>
     <use xlink:href="#DejaVuSans-67" transform="translate(817.382812 0)"/>
     <use xlink:href="#DejaVuSans-6e" transform="translate(880.859375 0)"/>
     <use xlink:href="#DejaVuSans-61" transform="translate(944.238281 0)"/>
     <use xlink:href="#DejaVuSans-74" transform="translate(1005.517578 0)"/>
     <use xlink:href="#DejaVuSans-75" transform="translate(1044.726562 0)"/>
     <use xlink:href="#DejaVuSans-72" transform="translate(1108.105469 0)"/>
     <use xlink:href="#DejaVuSans-65" transform="translate(1146.96875 0)"/>
     <use xlink:href="#DejaVuSans-20" transform="translate(1208.492188 0)"/>
     <use xlink:href="#DejaVuSans-62" transform="translate(1240.279297 0)"/>
     <use xlink:href="#DejaVuSans-79" transform="translate(1303.755859 0)"/>
     <use xlink:href="#DejaVuSans-20" transform="translate(1362.935547 0)"/>
     <use xlink:href="#DejaVuSans-64" transform="translate(1394.722656 0)"/>
     <use xlink:href="#DejaVuSans-65" transform="translate(1458.199219 0)"/>
     <use xlink:href="#DejaVuSans-68" transform="translate(1519.722656 0)"/>
     <use xlink:href="#DejaVuSans-79" transform="translate(1583.101562 0)"/>
     <use xlink:href="#DejaVuSans-64" transform="translate(1642.28125 0)"/>
     <use xlink:href="#DejaVuSans-72" transform="translate(1705.757812 0)"/>
     <use xlink:href="#DejaVuSans-61" transform="translate(1746.871094 0)"/>
     <use xlink:href="#DejaVuSans-74" transform="translate(1808.150391 0)"/>
     <use xlink:href="#DejaVuSans-69" transform="translate(1847.359375 0)"/>
     <use xlink:href="#DejaVuSans-6f" transform="translate(1875.142578 0)"/>
     <use xlink:href="#DejaVuSans-6e" transform="translate(1936.324219 0)"/>
     <use xlink:href="#DejaVuSans-20" transform="translate(1999.703125 0)"/>
     <use xlink:href="#DejaVuSans-73" transform="translate(2031.490234 0)"/>
     <use xlink:href="#DejaVuSans-74" transform="translate(2083.589844 0)"/>
     <use xlink:href="#DejaVuSans-61" transform="translate(2122.798828 0)"/>
     <use xlink:href="#DejaVuSans-67" transform="translate(2184.078125 0)"/>
     <use xlink:href="#DejaVuSans-65" transform="translate(2247.554688 0)"/>
    </g>
   </g>
   <g id="legend_1">
    <g id="patch_7">
     <path d="M 778.939063 106.830625 
L 846.2 106.830625 
Q 848.2 106.830625 848.2 104.830625 
L 848.2 32.44 
Q 848.2 30.44 846.2 30.44 
L 778.939063 30.44 
Q 776.939063 30.44 776.939063 32.44 
L 776.939063 104.830625 
Q 776.939063 106.830625 778.939063 106.830625 
z
" style="fill: #ffffff; opacity: 0.8; stroke: #cccccc; stroke-linejoin: miter"/>
    </g>
    <g id="line2d_28">
     <path d="M 780.939063 38.538437 
L 790.939063 38.538437 
L 800.939063 38.538437 
" style="fill: none; stroke: #1f77b4; stroke-width: 1.5; stroke-linecap: square"/>
    </g>
    <g id="text_15">
     <!-- Fresh -->
     <g transform="translate(808.939063 42.038437) scale(0.1 -0.1)">
      <defs>
       <path id="DejaVuSans-46" d="M 628 4666 
L 3309 4666 
L 3309 4134 
L 1259 4134 
L 1259 2759 
L 3109 2759 
L 3109 2228 
L 1259 2228 
L 1259 0 
L 628 0 
L 628 4666 
z
" transform="scale(0.015625)"/>
      </defs>
      <use xlink:href="#DejaVuSans-46"/>
      <use xlink:href="#DejaVuSans-72" transform="translate(50.269531 0)"/>
      <use xlink:href="#DejaVuSans-65" transform="translate(89.132812 0)"/>
      <use xlink:href="#DejaVuSans-73" transform="translate(150.65625 0)"/>
      <use xlink:href="#DejaVuSans-68" transform="translate(202.755859 0)"/>
     </g>
    </g>
    <g id="line2d_29">
     <path d="M 780.939063 53.216563 
L 790.939063 53.216563 
L 800.939063 53.216563 
" style="fill: none; stroke: #ff7f0e; stroke-width: 1.5; stroke-linecap: square"/>
    </g>
    <g id="text_16">
     <!-- Stage1 -->
     <g transform="translate(808.939063 56.716563) scale(0.1 -0.1)">
      <defs>
       <path id="DejaVuSans-53" d="M 3425 4513 
L 3425 3897 
Q 3066 4069 2747 4153 
Q 2428 4238 2131 4238 
Q 1616 4238 1336 4038 
Q 1056 3838 1056 3469 
Q 1056 3159 1242 3001 
Q 1428 2844 1947 2747 
L 2328 2669 
Q 3034 2534 3370 2195 
Q 3706 1856 3706 1288 
Q 3706 609 3251 259 
Q 2797 -91 1919 -91 
Q 1588 -91 1214 -16 
Q 841 59 441 206 
L 441 856 
Q 825 641 1194 531 
Q 1563 422 1919 422 
Q 2459 422 2753 634 
Q 3047 847 3047 1241 
Q 3047 1584 2836 1778 
Q 2625 1972 2144 2069 
L 1759 2144 
Q 1053 2284 737 2584 
Q 422 2884 422 3419 
Q 422 4038 858 4394 
Q 1294 4750 2059 4750 
Q 2388 4750 2728 4690 
Q 3069 4631 3425 4513 
z
" transform="scale(0.015625)"/>
      </defs>
      <use xlink:href="#DejaVuSans-53"/>
      <use xlink:href="#DejaVuSans-74" transform="translate(63.476562 0)"/>
      <use xlink:href="#DejaVuSans-61" transform="translate(102.685547 0)"/>
      <use xlink:href="#DejaVuSans-67" transform="translate(163.964844 0)"/>
      <use xlink:href="#DejaVuSans-65" transform="translate(227.441406 0)"/>
      <use xlink:href="#DejaVuSans-31" transform="translate(288.964844 0)"/>
     </g>
    </g>
    <g id="line2d_30">
     <path d="M 780.939063 67.894687 
L 790.939063 67.894687 
L 800.939063 67.894687 
" style="fill: none; stroke: #2ca02c; stroke-width: 1.5; stroke-linecap: square"/>
    </g>
    <g id="text_17">
     <!-- Stage2 -->
     <g transform="translate(808.939063 71.394687) scale(0.1 -0.1)">
      <use xlink:href="#DejaVuSans-53"/>
      <use xlink:href="#DejaVuSans-74" transform="translate(63.476562 0)"/>
      <use xlink:href="#DejaVuSans-61" transform="translate(102.685547 0)"/>
      <use xlink:href="#DejaVuSans-67" transform="translate(163.964844 0)"/>
      <use xlink:href="#DejaVuSans-65" transform="translate(227.441406 0)"/>
      <use xlink:href="#DejaVuSans-32" transform="translate(288.964844 0)"/>
     </g>
    </g>
    <g id="line2d_31">
     <path d="M 780.939063 82.572812 
L 790.939063 82.572812 
L 800.939063 82.572812 
" style="fill: none; stroke: #d62728; stroke-width: 1.5; stroke-linecap: square"/>
    </g>
    <g id="text_18">
     <!-- Stage3 -->
     <g transform="translate(808.939063 86.072812) scale(0.1 -0.1)">
      <defs>
       <path id="DejaVuSans-33" d="M 2597 2516 
Q 3050 2419 3304 2112 
Q 3559 1806 3559 1356 
Q 3559 666 3084 287 
Q 2609 -91 1734 -91 
Q 1441 -91 1130 -33 
Q 819 25 488 141 
L 488 750 
Q 750 597 1062 519 
Q 1375 441 1716 441 
Q 2309 441 2620 675 
Q 2931 909 2931 1356 
Q 2931 1769 2642 2001 
Q 2353 2234 1838 2234 
L 1294 2234 
L 1294 2753 
L 1863 2753 
Q 2328 2753 2575 2939 
Q 2822 3125 2822 3475 
Q 2822 3834 2567 4026 
Q 2313 4219 1838 4219 
Q 1578 4219 1281 4162 
Q 984 4106 628 3988 
L 628 4550 
Q 988 4650 1302 4700 
Q 1616 4750 1894 4750 
Q 2613 4750 3031 4423 
Q 3450 4097 3450 3541 
Q 3450 3153 3228 2886 
Q 3006 2619 2597 2516 
z
" transform="scale(0.015625)"/>
      </defs>
      <use xlink:href="#DejaVuSans-53"/>
      <use xlink:href="#DejaVuSans-74" transform="translate(63.476562 0)"/>
      <use xlink:href="#DejaVuSans-61" transform="translate(102.685547 0)"/>
      <use xlink:href="#DejaVuSans-67" transform="translate(163.964844 0)"/>
      <use xlink:href="#DejaVuSans-65" transform="translate(227.441406 0)"/>
      <use xlink:href="#DejaVuSans-33" transform="translate(288.964844 0)"/>
     </g>
    </g>
    <g id="line2d_32">
     <path d="M 780.939063 97.250937 
L 790.939063 97.250937 
L 800.939063 97.250937 
" style="fill: none; stroke: #9467bd; stroke-width: 1.5; stroke-linecap: square"/>
    </g>
    <g id="text_19">
     <!-- Dry -->
     <g transform="translate(808.939063 100.750937) scale(0.1 -0.1)">
      <defs>
       <path id="DejaVuSans-44" d="M 1259 4147 
L 1259 519 
L 2022 519 
Q 2988 519 3436 956 
Q 3884 1394 3884 2338 
Q 3884 3275 3436 3711 
Q 2988 4147 2022 4147 
L 1259 4147 
z
M 628 4666 
L 1925 4666 
Q 3281 4666 3915 4102 
Q 4550 3538 4550 2338 
Q 4550 1131 3912 565 
Q 3275 0 1925 0 
L 628 0 
L 628 4666 
z
" transform="scale(0.015625)"/>
      </defs>
      <use xlink:href="#DejaVuSans-44"/>
      <use xlink:href="#DejaVuSans-72" transform="translate(77.001953 0)"/>
      <use xlink:href="#DejaVuSans-79" transform="translate(118.115234 0)"/>
     </g>
    </g>
   </g>
  </g>
 </g>
 <defs>
  <clipPath id="p3525f32398">
   <rect x="47.81" y="25.44" width="805.39" height="364.6"/>
  </clipPath>
 </defs>
</svg>
